<svg width="4835" height="4039" viewBox="0 0 4835 4039" fill="none" xmlns="http://www.w3.org/2000/svg">
<path d="M3131.95 3235.68C3131.95 3235.09 3131.91 3234.6 3131.91 3234.02C3131.13 3206.6 3127.96 3178.23 3132.22 3150.98C3133.2 3144.68 3134.76 3138.54 3136.84 3132.5C3141.49 3119.02 3148.87 3106.33 3158.49 3094.77C3160.05 3088.05 3161.38 3081.32 3162.24 3074.6C3164.35 3058.28 3164.08 3041.79 3159.86 3024.56C3149.58 2982.55 3127.5 2943.22 3116.36 2901.27C3104.52 2856.92 3095.96 2812.1 3074.07 2770.12C3032.37 2690.25 2956 2626.93 2862.05 2589.91C2808.98 2569.02 2752.62 2554.46 2699.7 2533.31C2649.91 2513.4 2602.07 2490.75 2547.28 2481.87C2437.89 2464.21 2326.74 2490.06 2222.12 2515.16C2221.8 2515.23 2221.53 2515.33 2221.3 2515.39C2217.97 2515.36 2214.65 2515.39 2211.29 2515.46C2177.41 2516.01 2143.64 2520.06 2111.28 2527.96C2130.47 2503.97 2149.03 2479.65 2166.97 2455.01C2176 2447.07 2185.07 2439.31 2194.13 2431.67C2220.2 2409.77 2247.68 2387.93 2279.25 2371.61C2282.19 2370.07 2285.19 2368.61 2288.2 2367.2C2313.92 2362.31 2338.82 2363.64 2362.03 2374.81C2380.99 2383.91 2396.93 2396.71 2414.01 2408.04C2433.32 2420.83 2454.38 2431.7 2478.22 2437.45C2506.32 2444.27 2536.45 2444.17 2565.41 2442.83C2596.13 2441.4 2626.7 2438.26 2657.45 2437.97C2687.51 2437.67 2717.6 2439.63 2747.3 2443.62C2808.55 2451.81 2868.18 2468.72 2923.8 2491.53C2976.83 2513.24 3024.59 2541.51 3073.52 2568.79C3118.82 2594.02 3167.2 2618.83 3221.33 2627.87C3275.93 2636.98 3329.2 2626.7 3377.07 2603.88C3421.71 2582.6 3460.59 2552.93 3501.36 2526.91C3524.45 2512.19 3547.63 2497.6 3571 2483.18C3581.67 2476.62 3593 2470.41 3603.32 2463.49C3608.52 2460 3610.04 2456.31 3608.83 2450.73C3605.55 2435.13 3590.7 2418.61 3576.98 2408.26C3576.79 2408.1 3576.59 2407.94 3576.39 2407.78C3567.95 2401.7 3556.89 2399.65 3548.68 2393.51C3541.45 2391.78 3534.38 2389.53 3527.5 2386.92C3505.77 2378.82 3485.41 2367.3 3465.67 2356.43C3429.05 2336.23 3390.87 2318.18 3350.3 2304.07C3310.79 2290.33 3269.13 2280.41 3226.57 2276.26C3181.82 2271.92 3137.81 2275.32 3093.96 2283.35C3047.26 2291.87 3001.1 2303.78 2953.15 2306.23C2907.11 2308.58 2860.76 2303.29 2816.64 2292.36C2771.42 2281.16 2728.93 2263.5 2684.11 2251.26C2643.81 2240.26 2602.39 2235.1 2560.14 2240.03C2471.62 2250.38 2395.56 2296.8 2325.76 2340.21C2325.18 2340.57 2324.75 2340.93 2324.43 2341.32C2312.9 2345.14 2301.61 2349.48 2290.71 2354.34C2288.16 2355.48 2285.66 2356.66 2283.16 2357.83C2282.97 2357.93 2282.69 2358.03 2282.54 2358.16C2253.07 2372.33 2227.24 2390.7 2202.69 2410.29C2199.49 2412.83 2196.36 2415.38 2193.2 2417.96C2208.91 2395.31 2224.11 2372.43 2238.76 2349.35C2324.55 2214.05 2392.83 2068.31 2424.25 1916.99C2455.32 1876.09 2486.9 1835.42 2520.27 1795.85C2527.15 1787.69 2534.07 1779.57 2541.18 1771.54C2543.84 1768.47 2546.54 1765.43 2549.2 1762.43C2567.45 1755.67 2586.52 1750.45 2606.14 1746.99C2610.09 1746.31 2613.99 1745.65 2617.94 1745.1C2629.12 1743.53 2640.41 1742.52 2651.83 1742.13C2716.31 1739.91 2779.94 1752.44 2844.38 1752.34C2901.56 1752.25 2957.96 1741.9 3011.19 1724.66C3128.2 1686.8 3225.79 1618.29 3314.93 1546.25C3365.23 1505.61 3413.85 1463.5 3465.09 1423.58C3516.29 1383.7 3570.77 1347.92 3628.14 1314.5C3742.38 1247.94 3877.56 1177.93 3916.41 1058.72C3917 1056.93 3917.58 1055.07 3918.13 1053.24C3918.91 1050.69 3917.5 1047.63 3914.18 1046.87C3682.35 994.714 3476.38 1136.44 3262.41 1182.11C3154.7 1205.09 3040.19 1212.27 2945.45 1265.41C2850.6 1318.58 2784.9 1400.87 2720.1 1477.83C2718.11 1480.15 2716.15 1482.5 2714.2 1484.85C2693.21 1509.69 2672.42 1534.82 2652.53 1560.51C2667.85 1520.43 2686.84 1481.33 2707.48 1442.94C2710.88 1436.58 2714.4 1430.24 2717.87 1423.94C2718.77 1422.87 2719.71 1421.82 2720.61 1420.74C2764.66 1370.12 2808.7 1319.43 2852.71 1268.77C2888.7 1227.35 2924.74 1185.96 2960.73 1144.54C2994.69 1105.46 3030.1 1066.88 3058.28 1024.61C3107.52 950.649 3124.6 865.031 3096.89 782.809C3082.59 740.245 3057.3 700.717 3048.04 656.88C3038.78 613.043 3044.48 569.761 3060 527.426C3074.62 487.473 3091.5 441.058 3059.06 403.651C3047.92 390.823 3026.08 376.689 3005.83 382.173C3003.84 382.728 3002.04 383.446 3000.36 384.393C2991.88 389.06 2987.54 398.037 2982.66 405.316C2982.3 405.805 2982.03 406.295 2981.68 406.785C2977.3 420.951 2972.42 435.019 2966.95 448.859C2950.61 490.443 2929.43 530.657 2903.79 568.978C2859.43 635.272 2805.18 696.441 2759.97 762.277C2717.17 824.589 2682.7 892.221 2678.4 964.815C2676.17 1002.19 2681.49 1039.53 2687.74 1076.48C2694.5 1116.46 2701.42 1156.32 2705.13 1196.57C2711.86 1269.81 2711.5 1343.29 2708.61 1416.66C2708.26 1417.22 2707.99 1417.77 2707.71 1418.33C2699.47 1433.18 2691.42 1448.13 2683.72 1463.18C2662.14 1505.09 2642.95 1547.82 2628.77 1592.11C2590.47 1644.53 2557.01 1699.17 2533.88 1757.4C2532.55 1760.8 2531.22 1764.19 2529.97 1767.65C2528.72 1769.09 2527.47 1770.53 2526.21 1771.96C2492.37 1811.07 2460.4 1851.34 2429.21 1891.95C2432.65 1872.76 2435.5 1853.47 2437.73 1834.11C2438.36 1828.82 2438.91 1823.53 2439.41 1818.21C2439.45 1817.72 2439.49 1817.23 2439.57 1816.78C2440.39 1808.13 2441.02 1799.51 2441.56 1790.89C2476.62 1689.22 2531.92 1593.02 2568.78 1491.74C2604.22 1394.44 2620.01 1292.33 2616.07 1190.66C2612.2 1090.42 2589.57 990.895 2548.88 896.53C2528.29 848.841 2503.04 802.557 2473.26 758.361C2443.36 714.002 2409.55 671.536 2381.69 626.197C2349.72 574.102 2329.32 520.245 2331.74 461.23C2332.84 433.55 2335.34 403.129 2317.36 378.452C2303.76 359.847 2281.25 345.811 2254.83 347.052C2252.91 347.149 2251 347.313 2249.04 347.574C2246.35 347.933 2244.47 350.152 2244.24 352.307C2225.48 564.865 2044.92 737.862 2013.57 948.266C2006.58 995.171 2007.63 1043.19 2020.45 1089.34C2034.48 1139.9 2064.85 1185.89 2080.48 1235.96C2088.73 1262.37 2089.94 1288.45 2089.67 1315.58C2089.43 1340.12 2090.56 1364.37 2099.79 1387.87C2116.28 1430.05 2150.91 1464.71 2187.92 1495.69C2235.09 1535.15 2286.02 1570.76 2327.52 1614.7C2371.14 1660.85 2405.76 1712.55 2430.54 1767.52C2430.31 1774.77 2429.96 1781.98 2429.56 1789.16C2428.74 1802.84 2427.61 1816.52 2426.09 1830.13C2425.54 1835.35 2424.87 1840.54 2424.25 1845.76C2424.01 1847.2 2423.86 1848.64 2423.66 1850.04C2420.85 1871.19 2417.25 1892.28 2412.92 1913.26C2411.12 1922.14 2409.12 1930.99 2407.05 1939.83C2379.23 2058.13 2329.01 2173.12 2266.67 2281.19C2233.65 2338.48 2197.18 2394.46 2157.55 2448.84C2145.01 2466.04 2132.19 2483.14 2119.02 2500.02C2110.5 2511.05 2101.78 2521.99 2092.95 2532.82C2088.96 2537.78 2084.94 2542.71 2080.87 2547.61C2071.53 2558.94 2062.07 2570.16 2052.38 2581.33C2051.99 2581.78 2051.6 2582.24 2051.21 2582.7C1989.62 2654.05 1922.55 2722.08 1850.83 2786.28C1681.18 2938.16 1484.63 3069.15 1268.74 3172.42C1242.56 3184.96 1216.02 3197.07 1189.29 3208.82C1182.37 3211.85 1187.84 3220.93 1194.76 3217.89C1415.93 3120.79 1619 2995.64 1795.88 2848.3C1908.64 2754.39 2010.84 2651.54 2100.3 2541.51C2134.34 2531.75 2170.1 2526.69 2206.21 2525.71C2207.03 2526.26 2208.05 2526.65 2209.26 2526.82C2302.86 2539.19 2391.77 2574.28 2462.94 2626.6C2528.79 2675.01 2573.07 2736.73 2610.48 2802.18C2645.3 2863.05 2675.27 2926.41 2719.16 2983.3C2740.46 3010.95 2764.97 3036.9 2794.16 3059.06C2820.23 3078.81 2850.25 3094.08 2878.82 3111.03C2882.92 3113.47 2887.02 3115.99 2891.09 3118.53C2896.17 3121.73 2901.21 3125.03 2906.09 3128.46C2927.47 3143.37 2943.97 3161 2959.01 3180.42C2959.48 3180.94 2959.87 3181.46 2960.26 3181.99C2966.28 3189.82 2972.26 3197.69 2978.51 3205.33C2987.46 3210.32 2996.65 3214.92 3006.15 3219C3038.62 3233 3074.23 3241.26 3112.33 3240.84C3116.55 3240.77 3120.85 3240.64 3125.15 3240.38C3125.31 3240.38 3125.46 3240.38 3125.66 3240.35C3128.79 3240.15 3132.11 3238.49 3131.99 3235.52L3131.95 3235.68ZM2543.76 2252.86C2587.14 2245.03 2630.17 2248.06 2672.46 2258.9C2716.31 2270.13 2757.62 2287.2 2801.2 2299.05C2843.37 2310.51 2887.73 2317.07 2932.08 2316.97C2976.91 2316.87 3020.25 2308.48 3063.63 2299.73C3108.81 2290.59 3153.8 2282.86 3200.54 2284.69C3244.23 2286.45 3287.22 2294.87 3328.1 2307.67C3375.16 2322.35 3418.89 2342.82 3460.71 2365.93C3486.5 2380.16 3513.55 2395.11 3543.1 2402.81C3546.07 2404.84 3549.39 2406.57 3553.02 2407.97C3570.61 2414.89 3582.37 2426.35 3591.4 2440.81C3593.36 2443.94 3595.43 2447.3 3596.44 2450.76C3597.65 2454.84 3597.69 2453.9 3595.35 2455.99C3588.04 2462.29 3576.86 2467.18 3568.38 2472.37C3548.14 2484.78 3528.05 2497.37 3508.04 2510.04C3424.99 2562.69 3339.2 2637.21 3225.01 2618.28C3170.56 2609.24 3122.34 2583.97 3076.92 2558.51C3029.13 2531.71 2982.3 2504.29 2930.4 2483.08C2878.11 2461.67 2822.85 2445.28 2765.55 2436.14C2707.2 2426.84 2650.03 2427.39 2591.13 2431.28C2557.6 2433.5 2522.31 2435.88 2489.16 2429.42C2461.81 2424.06 2438.55 2411.69 2416.94 2397.1C2398.38 2384.6 2380.79 2370.7 2359.02 2362.18C2346.05 2357.08 2332.6 2354.73 2318.92 2354.41C2323.38 2352.78 2327.91 2351.21 2332.48 2349.74L2331.98 2348.79C2332.6 2348.6 2333.23 2348.34 2333.85 2347.94C2343.08 2342.2 2352.38 2336.45 2361.8 2330.68C2417.18 2297.02 2476.42 2265.04 2543.72 2252.89L2543.76 2252.86ZM2721.63 1393.72C2723.38 1338.85 2723.35 1283.91 2719.79 1229.11C2717.17 1189.06 2712.48 1149.17 2705.72 1109.51C2699.15 1071 2691.42 1032.48 2690.24 993.506C2685.36 836.927 2816.01 715.862 2904.84 588.138C2943.93 531.93 2973.86 472.262 2993.21 409.82C2998.56 400.844 3005.32 390.758 3016.85 391.443C3040.58 392.912 3056.68 415.695 3062.15 432.604C3075.28 473.078 3050.27 512.574 3039.64 551.286C3029.28 588.791 3028.58 628.025 3037.8 665.758C3047.73 706.494 3070.9 743.672 3084.58 783.494C3112.1 863.53 3096.27 947.058 3048.16 1019.23C3021.15 1059.74 2987.39 1096.82 2954.91 1134.25C2921.26 1172.93 2887.65 1211.65 2854.04 1250.29C2818.04 1291.71 2782.01 1333.17 2745.94 1374.59C2737.73 1383.99 2729.56 1393.42 2721.39 1402.86C2721.51 1399.82 2721.63 1396.79 2721.7 1393.72L2721.63 1393.72ZM2618.92 1626.12C2625.76 1616.1 2632.79 1606.18 2640.02 1596.29C2657.88 1571.84 2676.8 1547.95 2696.11 1524.44C2729.99 1483.22 2764.54 1442.22 2800.61 1402.3C2835.79 1363.39 2873.73 1325.69 2918.95 1294.65C2963.19 1264.3 3013.45 1243.28 3068.17 1229.63C3119.95 1216.74 3173.34 1209.36 3226.06 1199.8C3281.99 1189.58 3336 1175.15 3389.03 1157.23C3444.49 1138.53 3498.62 1117.22 3553.88 1098.15C3598.87 1082.65 3646 1068.55 3694.15 1058.95C3763.52 1045.14 3834.96 1040.77 3905 1055.46C3869.59 1164.35 3750.47 1231.52 3645.18 1292.5C3588.74 1325.2 3533.48 1358.56 3482.25 1396.92C3429.56 1436.35 3380.2 1478.75 3329.75 1520.17C3238.84 1594.85 3141.96 1667.54 3023.26 1709.81C2968.78 1729.2 2910.24 1741.47 2850.79 1742.29C2785.76 1743.2 2721.59 1730.41 2656.52 1732.01C2643.15 1732.34 2629.86 1733.45 2616.73 1735.27C2612.74 1735.8 2608.76 1736.45 2604.81 1737.13C2590.54 1739.65 2576.55 1743.04 2562.91 1747.19C2558.22 1748.62 2553.57 1750.16 2548.96 1751.79C2550.45 1748.26 2551.97 1744.71 2553.53 1741.18C2571.16 1701.33 2593.59 1663.14 2618.8 1626.15L2618.92 1626.12ZM2430.85 1741.28C2411.08 1702.24 2386.22 1665.16 2356.75 1630.56C2321.23 1588.88 2278.39 1553.5 2233.84 1518.63C2193.74 1487.23 2152 1454.66 2125.93 1413.63C2112.18 1391.96 2104.05 1368.65 2102.25 1344.17C2100.37 1318.19 2103.58 1292.07 2099.79 1266.19C2092.44 1215.99 2063.99 1170.49 2044.64 1123.19C2025.81 1077.03 2018.81 1028.76 2022.21 980.091C2029.17 880.34 2074.23 785.714 2122.3 695.364C2180.02 586.832 2244 477.256 2255.92 357.235C2284.84 355.864 2307.71 378.093 2315.29 399.897C2324.43 426.075 2318.69 454.049 2319.16 480.814C2319.98 528.568 2337.96 574.396 2362.58 617.091C2387.94 661.123 2419.87 702.218 2449.42 744.325C2479.47 787.183 2505.89 831.705 2527.54 877.99C2613.99 1062.67 2628.69 1270.99 2566.24 1462.46C2533.88 1561.62 2481 1655.14 2442.93 1752.67C2441.95 1755.18 2440.98 1757.7 2440.04 1760.18C2437.19 1753.81 2434.1 1747.51 2430.89 1741.25L2430.85 1741.28ZM2986.8 3197.88C2968.39 3175.39 2952.56 3151.27 2928.92 3132.11C2894.06 3103.91 2850.09 3085.47 2813 3059.58C2781.66 3037.71 2755.24 3011.08 2732.88 2982.62C2688.02 2925.62 2657.77 2861.84 2622.83 2800.48C2586.17 2736.05 2543.25 2674.48 2479.75 2625.75C2420.54 2580.28 2349.21 2546.96 2272.34 2528.38C2261.51 2525.74 2250.61 2523.42 2239.59 2521.4C2245.96 2519.86 2252.33 2518.4 2258.74 2516.89C2341.51 2497.44 2427.14 2480.56 2513.28 2487.81C2568.5 2492.48 2617.2 2510.1 2666.32 2530.7C2717.48 2552.15 2770.67 2568.43 2823.47 2586.68C2873.89 2604.11 2921.3 2625.88 2961.79 2656.7C3000.05 2685.78 3031.78 2720.7 3054.72 2759.45C3078.8 2799.99 3089.39 2843.43 3100.37 2887.4C3105.84 2909.34 3112.02 2931.08 3120.5 2952.39C3128.04 2971.42 3136.64 2990.16 3143.05 3009.48C3150.2 3031.06 3154.19 3053.12 3150.83 3075.45C3150.12 3080.21 3149.19 3084.91 3148.01 3089.61C3135.04 3105.35 3125.97 3123.1 3121.67 3142.1C3115.34 3170.37 3118.55 3200.27 3119.64 3228.99C3119.64 3229.51 3119.68 3230.07 3119.68 3230.59C3115.58 3230.75 3111.47 3230.79 3107.41 3230.72C3063.09 3230.13 3022.64 3217.5 2986.84 3197.79L2986.8 3197.88Z" fill="#CCB282" fill-opacity="0.35"/>
</svg>
