<svg width="5240" height="2809" viewBox="0 0 5240 2809" fill="none" xmlns="http://www.w3.org/2000/svg">
<path d="M2428.69 2446.71C2427.55 2444.98 2426.47 2443.26 2425.34 2441.47C2341.76 2281.06 2306.99 2094.7 2301.86 1914.1C2297.75 1767.88 2312.45 1622.76 2325.91 1477.44C2338.36 1342.9 2346.46 1202.44 2304.74 1071.85C2280.78 996.848 2239.37 924.213 2182.25 869.324C2180.87 868.015 2179.5 866.707 2178.12 865.398C2145.4 776.873 2091.02 695.707 2014.56 639.263C1971.87 607.746 1924.48 583.143 1876.83 560.232C1829.17 537.321 1780.63 516.091 1730.48 499.267C1722.87 496.72 1715.18 494.229 1707.49 491.863C1822.78 505.767 1937.8 521.488 2052.19 540.899C2183.6 563.19 2313.39 596.644 2440.87 635.124C2462.12 641.559 2483.24 648.106 2504.39 654.848C2504.52 654.863 2504.69 655.011 2504.82 655.026C2679.21 726.025 2828.17 852.037 2941.39 1001.24C2994.07 1070.66 3038.66 1146.09 3077.73 1223.88C3106.94 1281.89 3131.22 1342.19 3144.37 1405.98C3147.19 1419.57 3149.56 1433.18 3151.47 1446.86C3151.32 1447.04 3151.17 1447.21 3151.02 1447.39C3150.8 1447.68 3150.57 1447.97 3150.35 1448.26C3048.28 1579.48 3014.29 1760.3 3021.61 1924.38C3028.93 2088.52 3070.6 2247.93 3100.53 2408.97C3103.56 2456.78 3109.35 2504.47 3118.54 2551.98C3120.06 2559.74 3121.64 2567.52 3123.34 2575.31C3124.43 2580.73 3125.65 2586.16 3126.86 2591.6C3126.85 2591.66 3126.85 2591.73 3126.83 2591.85C3130.67 2587.39 3134.45 2582.85 3138.11 2578.31C3138.4 2577.96 3138.7 2577.61 3138.93 2577.25C3180.99 2524.57 3212.04 2464.02 3235.11 2399.17C3268.65 2304.73 3294.05 2205.7 3315.67 2107.89C3353.8 1935.34 3365.05 1748.23 3281.75 1586.45C3254.93 1534.27 3217.18 1483.87 3170.42 1446.21C3168.56 1444.71 3166.63 1443.15 3164.7 1441.71C3163.93 1436.77 3163.17 1431.84 3162.34 1426.89C3151.46 1362.73 3130.11 1301.37 3102.27 1242.62C3024.53 1078.62 2918.17 927.984 2780.03 809.295C2727.73 764.41 2671.24 724.393 2611.11 690.841C2688.04 718.126 2764.08 748.114 2838.67 781.249C2839.02 781.482 2839.39 781.652 2839.81 781.829C2840.42 782.091 2841.09 782.361 2841.7 782.56C2841.77 782.567 2841.89 782.582 2841.94 782.715C2881.17 800.179 2919.98 818.486 2958.3 837.756C3119.95 919.005 3269.15 1020.55 3412.4 1130.52C3549.15 1235.46 3682.23 1345.08 3824.67 1442.26C3830.35 1446.12 3836.02 1449.97 3841.7 1453.76C3842.67 1456.42 3843.69 1459.15 3844.71 1461.83C3844.91 1462.3 3845.11 1462.83 3845.31 1463.3C3913.61 1638.83 4067.15 1775.9 4227.02 1870.78C4410.33 1979.56 4615.29 2051.52 4797.74 2161.15C4807.92 2167.32 4818.04 2173.54 4828.07 2179.94C4824.45 2174.92 4820.9 2169.85 4817.27 2164.84C4813.93 2160.11 4810.52 2155.44 4807.18 2150.71C4801.59 2142.91 4796.05 2135.12 4790.46 2127.33C4759.15 2083.55 4727.77 2039.83 4696.17 1996.28C4636.89 1914.54 4575.52 1833.77 4504.79 1761.54C4370.69 1624.57 4200.83 1526.29 4015.1 1478.59C3965.26 1465.75 3914.59 1456.65 3863.61 1451.27C3598.29 1272.39 3362.91 1051.2 3085.06 890.63C3268.11 977.567 3448.21 1071.3 3638.21 1142.4C3641.12 1143.7 3644.03 1145.06 3647 1146.36C3827.4 1227.12 4013.5 1297.25 4210.41 1320.11C4341.69 1335.3 4472.23 1323.56 4602.12 1302.55C4718.16 1283.82 4833.08 1263.24 4950.38 1253.9C5007.68 1249.37 5065.71 1246.25 5123.7 1246.13C5136.52 1246.1 5149.39 1246.26 5162.17 1246.6C5154.52 1243.29 5146.79 1240.09 5139.05 1237.02C5135.15 1235.48 5131.24 1234 5127.39 1232.53C5118.71 1229.28 5109.95 1226.22 5101.16 1223.35C5094.9 1221.28 5088.57 1219.26 5082.22 1217.37C4949.49 1177.39 4811.52 1173.08 4674.02 1171.26C4525.83 1169.27 4374.78 1168.8 4231.88 1124.18C4156.92 1100.76 4085.21 1067.58 4009.03 1048.1C3949.63 1032.94 3888.68 1027.74 3827.6 1033.56C3746.66 1041.2 3668.03 1067.3 3598.62 1108.89C3597.33 1109.63 3596.08 1110.44 3594.85 1111.19C3416.63 1040.7 3245.06 951.021 3072.6 869.467C2998.01 834.163 2922.84 800.066 2846.18 769.369C2758.25 730.276 2668.28 695.6 2577.33 664.445C2554.58 656.623 2531.73 649.046 2508.8 641.649C2373.77 597.951 2235.95 561.198 2096.73 534.744C1923.01 501.711 1746.2 482.031 1570.56 462.168C1570 462.102 1569.49 462.043 1568.93 461.977C1560.07 460.816 1551.13 459.836 1542.17 458.981C1542.17 458.981 1542.17 458.981 1542.1 458.974C1525.42 457.091 1508.67 455.263 1491.97 453.505C1607.93 444.779 1722.93 418.018 1836.56 392.627C1889.41 380.809 1941.07 369.424 1992.42 352.393C2023.74 342.015 2053.9 336.669 2086.82 342.043C2115.17 346.754 2142.52 356.645 2169.09 367.272C2175.49 369.806 2181.82 372.457 2188.14 375.172C2187.19 375.062 2186.31 374.959 2185.37 374.849C2191.9 377.907 2198.5 380.91 2205.05 383.843C2215.33 392.506 2225.71 400.798 2235.81 408.802C2292.34 453.479 2354.7 490.289 2420.24 520.009C2555.52 581.34 2703.08 612.213 2850.2 627.217C3159.46 658.656 3469.47 613.706 3779.18 629.763C3801.63 630.916 3824.09 632.453 3846.52 634.306C3847.02 634.364 3847.59 634.431 3848.09 634.489C3856.94 635.203 3865.77 636.042 3874.59 636.945C3866.99 631.592 3859.32 626.296 3851.64 621.062C3851.57 621.054 3851.52 620.921 3851.4 620.907C3751.06 552.619 3643.48 495.093 3531.24 449.016C3377.14 385.552 3213.87 343.853 3048.14 325.465C2880.96 306.909 2712.58 313.344 2546.99 342.365C2456.08 358.352 2366.1 375.087 2273.33 369.361C2249.9 367.902 2226.57 365.562 2203.3 362.781C2200.4 362.443 2197.57 362.113 2194.67 361.775C2166.12 349.576 2136.93 339.025 2107.01 331.898C2073.01 323.783 2039.98 323.691 2006.38 333.419C1990.4 338.06 1974.74 343.759 1958.9 348.863C1934.25 356.828 1909.17 362.384 1883.85 367.848C1792.83 387.522 1702.31 409.934 1610.4 425.231C1534.04 437.94 1456.79 445.062 1379.7 441.55C1197.08 423.041 1014.04 408.056 830.708 398.393C720.589 392.62 610.248 388.735 499.95 389.958C419.283 390.876 337.385 393.053 257.778 407.298C243.708 409.801 229.706 412.823 215.93 416.637C207.367 418.955 209.523 432.728 218.219 430.363C287.554 411.22 361.56 407.802 433.043 405.238C537.765 401.515 642.781 404.014 747.522 408.329C930.275 415.883 1112.8 429.787 1294.91 447.216C1295.29 447.26 1295.59 447.423 1296.03 447.474C1322.98 451.513 1349.92 454.083 1376.76 455.302C1412.31 458.878 1447.86 462.58 1483.32 466.401C1502.22 468.415 1521.05 470.486 1539.94 472.563C1540.26 472.6 1540.64 472.644 1540.95 472.681C1542.4 472.85 1543.91 473.026 1545.36 473.132C1548.45 473.492 1551.47 473.781 1554.56 474.141C1555.44 474.244 1556.26 474.34 1557.14 474.442C1658.88 486.382 1755.25 518.742 1848.13 561.857C1943.84 606.325 2035.78 656.921 2098.74 744.319C2125.81 781.858 2147.34 823.088 2163.74 866.207C2162.76 866.922 2161.78 867.7 2160.8 868.415C2159.75 869.186 2158.7 870.02 2157.71 870.861C2082.38 930.445 2023.62 1011.99 1987.02 1100.91C1915.74 1273.93 1918.31 1471.58 1952.31 1652.93C1983.09 1817.13 2044.43 1975.27 2131.65 2117.67C2175.46 2189.32 2225.88 2256.88 2282.34 2319.03C2324.84 2365.89 2370.72 2409.45 2416.03 2453.52C2416.6 2454.1 2417.23 2454.68 2417.75 2455.19C2426.56 2463.81 2435.39 2472.37 2444.13 2481.04C2446.7 2483.64 2449.34 2486.18 2451.97 2488.78C2456.54 2493.33 2461.17 2497.96 2465.73 2502.57C2453.09 2484.07 2440.73 2465.4 2428.65 2446.51L2428.69 2446.71ZM3062.86 1660.09C3082.07 1591.14 3112 1524.86 3153.95 1467.63C3155.17 1477.4 3156.27 1487.16 3157.23 1496.91C3157.2 1497.16 3157.31 1497.36 3157.28 1497.61C3161.38 1548.29 3161.4 1599.45 3160.71 1650.2C3160.71 1651.29 3160.91 1652.33 3161.26 1653.14C3155.74 1814.06 3124.72 1976.6 3108.45 2134.54C3101.93 2197.5 3097.96 2260.5 3098.03 2323.28C3053.78 2105.13 3001.75 1879.83 3062.87 1660.02L3062.86 1660.09ZM3260.44 1575.61C3299.02 1643.96 3320.63 1721.11 3328.39 1798.94C3337.47 1890 3327.09 1982.17 3309.32 2071.56C3290.53 2166.45 3264.96 2260.92 3235.88 2353.21C3218.87 2407.16 3198.66 2460.68 3169.86 2509.55C3159.92 2526.44 3148.96 2542.71 3137.02 2558.15C3131.19 2505.36 3122.82 2452.97 3113.25 2401.66C3112.87 2395.62 3112.55 2389.58 3112.24 2383.49C3109.08 2313.85 3112.32 2244.06 3118.44 2174.68C3130.89 2033.57 3155.73 1893.98 3168.24 1752.88C3174.57 1681.74 3177.39 1609.99 3173.52 1538.8C3173.52 1538.23 3173.46 1537.71 3173.46 1537.13C3172.39 1511.88 3170.55 1486.66 3167.48 1461.62C3205.29 1493.39 3236.64 1533.6 3260.32 1575.53L3260.44 1575.61ZM4767.08 2126.51C4767.84 2127.11 4768.54 2127.64 4769.31 2128.18C4750.95 2117.68 4732.42 2107.6 4713.97 2097.92C4470.61 1970.21 4196.27 1882.31 4002.61 1677.99C3945.54 1617.75 3897.15 1548.7 3864.92 1472.86C3883.77 1483.48 3902.54 1494.28 3921.15 1505.32C3929.35 1510.49 3937.62 1515.6 3945.83 1520.7C3946.79 1521.26 3947.7 1521.62 3948.64 1521.73C4026.28 1568.68 4101.88 1618.77 4176.33 1670.58C4277.92 1741.25 4376.66 1815.54 4473.41 1892.65C4571.27 1970.67 4667.86 2050.32 4767.07 2126.57L4767.08 2126.51ZM4248.55 1584.61C4333.28 1630.34 4411.37 1688.13 4479.83 1755.76C4549.37 1824.4 4609.77 1901.49 4667.5 1980.18C4696.23 2019.31 4724.66 2058.8 4753.03 2098.27C4672.67 2035.89 4593.9 1971.39 4514.76 1907.88C4328.64 1758.58 4135.88 1615.98 3930.2 1494.51C3916.54 1485.84 3902.89 1477.1 3889.39 1468.12C4014.77 1484.74 4137.13 1524.4 4248.56 1584.55L4248.55 1584.61ZM4661.78 1278.33C4529.76 1301.19 4396.56 1320.47 4262.21 1310.78C4132.41 1301.5 4005.4 1269.39 3882.98 1226.33C3855.53 1216.69 3828.27 1206.49 3801.13 1195.86C3839.17 1206.61 3877.67 1216.08 3916.42 1223.99C3989.5 1243.81 4063.31 1260.65 4138.64 1269.95C4217.55 1279.74 4296.65 1277.49 4375.88 1274.62C4456.21 1271.68 4536.38 1266.82 4616.61 1261.51C4716.69 1254.88 4816.77 1247.75 4916.97 1242.86C4831.45 1250.99 4746.54 1263.6 4661.72 1278.32L4661.78 1278.33ZM3614.08 1115.86C3671.78 1082.73 3735.74 1060.47 3801.62 1050.68C3859.06 1042.14 3917.76 1043.12 3974.75 1054.37C4051.31 1069.49 4123.07 1101.72 4196.52 1127.07C4333.19 1174.21 4476.23 1182.11 4619.68 1184.37C4755.42 1186.44 4892.32 1185.26 5025.37 1216.41C5035.49 1218.81 5045.53 1221.32 5055.54 1224.08C4930.32 1226.88 4805.24 1235.05 4680.27 1243.43C4599.9 1248.84 4519.54 1254.26 4439.1 1258.14C4358.15 1262.09 4276.12 1266.99 4195.19 1261.44C4101.28 1255.07 4009.6 1234.99 3918.9 1210.37C3849.41 1191.54 3780.54 1170.05 3711.69 1150.08C3692.5 1144.53 3673.23 1139.09 3653.9 1133.71C3653.17 1133.43 3652.37 1133.15 3651.57 1132.86C3639.02 1127.25 3626.42 1121.57 3613.94 1115.9L3614.08 1115.86ZM3393.32 617.447C3093.3 628.226 2782.8 641.291 2496.14 535.884C2419.27 507.585 2345.52 470.593 2278.66 423.179C2270.7 417.53 2262.83 411.764 2255.1 405.886C2269.57 412.998 2284.04 420.235 2298.36 427.583C2301.49 429.161 2304.16 428.133 2305.81 426.03C2317.84 430.686 2330.01 435.105 2342.2 439.398C2441.65 474.287 2543.01 489.562 2647.92 496.768C2890.66 513.427 3134.71 492.543 3376.56 524.407C3517.21 542.929 3655.2 575.491 3790.81 616.45C3658.38 608.903 3524.63 612.745 3393.38 617.455L3393.32 617.447ZM2346.16 384.176C2390.89 382.381 2435.21 375.945 2479.26 368.521C2564.57 354.048 2649.21 338.733 2735.64 332.684C2820.6 326.717 2906 327.309 2990.94 334.034C3158.36 347.26 3323.69 384.417 3480.75 443.825C3593.58 486.526 3702.13 540.72 3803.73 605.775C3693.12 572.007 3580.97 543.736 3466.8 524.032C3348.25 503.562 3228.86 494.156 3108.72 491.742C2985.71 489.249 2862.57 491.778 2739.59 487.438C2627.16 483.437 2512.73 476.332 2404.16 444.653C2355.49 430.488 2307.87 412.748 2261.13 393.004C2252.51 388.681 2243.83 384.352 2235.14 380.148C2272.04 383.689 2309.07 385.587 2346.11 384.043L2346.16 384.176ZM2284.32 1055.05C2332.57 1185.95 2325.28 1329.83 2312.98 1466.36C2299.98 1609.95 2284.74 1753.09 2287.65 1897.58C2290.36 2033.38 2307.53 2169.33 2350.1 2298.68C2354.67 2312.54 2359.56 2326.32 2364.73 2340C2323.41 2265.58 2287.8 2188.14 2260.65 2107.03C2231.67 2020.34 2212.69 1929.91 2208.12 1838.49C2203.02 1736.28 2220.41 1635.94 2238.54 1535.81C2255.57 1441.74 2270.78 1347.52 2267.63 1251.6C2264.92 1169.89 2251.17 1088.75 2227.52 1010.47C2215.82 971.917 2201.75 933.981 2185.31 897.236C2186.12 896.31 2186.76 895.173 2186.97 893.922C2229.98 939.7 2262.68 996.139 2284.38 1055.06L2284.32 1055.05ZM2357 2376.66C2300.25 2320.29 2247.17 2260.77 2200.28 2195.85C2102.63 2060.77 2030.1 1907.32 1987.56 1746.09C1941.61 1571.95 1924.69 1381.37 1967.86 1205C1998.09 1081.47 2064.54 963.062 2163.64 883.417C2177.61 912.921 2190.09 943.145 2200.97 974.011C2228.42 1051.91 2245.7 1133.4 2251.77 1215.82C2258.76 1310.07 2247.79 1403 2231.47 1495.76C2213.93 1595.76 2192.89 1695.74 2193.09 1797.82C2193.32 1888.23 2207.88 1978.21 2232.97 2064.95C2267.91 2185.82 2322.31 2299.01 2387.1 2406.26C2377.02 2396.41 2366.89 2386.49 2356.89 2376.52L2357 2376.66Z" fill="#CCB282" fill-opacity="0.35"/>
</svg>
