<svg width="3751" height="4606" viewBox="0 0 3751 4606" fill="none" xmlns="http://www.w3.org/2000/svg">
<path d="M2618.72 2799.04C2617 2799.35 2615.31 2799.61 2613.55 2799.88C2461.47 2811 2305.62 2775.66 2164.11 2719.31C2049.56 2673.64 1942.15 2613.79 1834.16 2554.83C1734.19 2500.26 1628.17 2447.07 1513.16 2435.74C1447.1 2429.24 1377.05 2437.02 1315.49 2462.9C1314.02 2463.53 1312.54 2464.16 1311.07 2464.79C1231.62 2460.55 1150.63 2475.52 1081.41 2515.85C1042.75 2538.37 1007.88 2566.83 974.228 2596.06C940.578 2625.29 907.929 2655.78 878.156 2688.97C873.642 2694.01 869.148 2699.13 864.746 2704.29C914.018 2619.7 964.606 2535.92 1017.84 2453.86C1078.99 2359.6 1148.24 2270.32 1220.6 2184.5C1232.68 2170.2 1244.8 2156.04 1257.09 2141.92C1257.14 2141.83 1257.31 2141.74 1257.37 2141.65C1370.57 2030.38 1517.86 1957.17 1671.16 1919.38C1742.5 1901.79 1815.77 1892.48 1889.03 1888.22C1943.69 1884.99 1998.47 1886.34 2052.24 1897.46C2063.7 1899.83 2075.03 1902.54 2086.25 1905.63C2086.34 1905.8 2086.43 1905.97 2086.51 1906.15C2086.66 1906.42 2086.81 1906.69 2086.96 1906.96C2154.44 2029.79 2283.04 2116.5 2412.48 2165.64C2541.97 2214.81 2679.28 2235.8 2813.93 2266.42C2851.94 2280.05 2890.79 2291.5 2930.63 2300.25C2937.15 2301.67 2943.69 2303.05 2950.29 2304.33C2954.85 2305.29 2959.46 2306.17 2964.08 2307.05C2964.12 2307.07 2964.17 2307.1 2964.26 2307.15C2962.09 2302.69 2959.84 2298.25 2957.54 2293.9C2957.37 2293.55 2957.2 2293.21 2957.01 2292.91C2930.27 2242.76 2893.78 2198.5 2851.29 2158.98C2789.4 2101.48 2721.23 2048.74 2652.75 1999.33C2531.93 1912.18 2390.86 1840.98 2237.81 1851.41C2188.47 1854.74 2136.85 1867.13 2092.08 1890.74C2090.3 1891.68 2088.45 1892.65 2086.69 1893.67C2082.61 1892.61 2078.53 1891.55 2074.43 1890.54C2021.13 1877.53 1966.51 1873.56 1911.74 1875.49C1758.83 1880.88 1606.71 1912.88 1468.7 1980.16C1416.49 2005.65 1366.64 2036.01 1320.59 2071.34C1367.41 2020.91 1416.02 1972.07 1466.58 1925.41C1466.88 1925.21 1467.13 1924.99 1467.41 1924.72C1467.81 1924.33 1468.25 1923.9 1468.61 1923.5C1468.63 1923.45 1468.69 1923.36 1468.81 1923.36C1495.43 1898.83 1522.56 1874.91 1550.28 1851.68C1667.16 1753.7 1795.59 1672.14 1928.56 1598C2055.47 1527.2 2184.76 1460.81 2307.56 1383.02C2312.44 1379.92 2317.32 1376.81 2322.15 1373.68C2324.53 1373.82 2326.99 1373.95 2329.4 1374.04C2329.83 1374.05 2330.31 1374.07 2330.74 1374.08C2489.42 1379.84 2646.8 1306.79 2773.64 1214.74C2919.06 1109.19 3043.22 974.582 3189.02 869.986C3197.19 864.16 3205.39 858.406 3213.69 852.779C3208.6 853.909 3203.49 854.967 3198.4 856.097C3193.62 857.102 3188.87 858.18 3184.09 859.186C3176.19 860.913 3168.31 862.594 3160.41 864.321C3116.07 873.934 3071.74 883.621 3027.48 893.526C2944.41 912.109 2861.4 932.633 2781.86 963.249C2631.06 1021.29 2498.24 1119.94 2399.29 1247.76C2372.7 1282.06 2348.73 1318.23 2327.54 1355.89C2100.46 1501.5 1850.64 1609.81 1633.54 1771.24C1761.98 1658.59 1894.68 1550.5 2013.18 1427.18C2015.16 1425.36 2017.18 1423.57 2019.18 1421.7C2141.95 1309.05 2258.39 1188.43 2341.86 1043.65C2397.47 947.116 2431.98 842.157 2459.11 734.602C2483.38 638.528 2505.83 542.705 2537.79 448.792C2553.41 402.926 2570.38 356.974 2589.66 312.046C2593.92 302.108 2598.34 292.205 2602.88 282.427C2597.76 287.24 2592.7 292.153 2587.74 297.119C2585.24 299.625 2582.79 302.158 2580.37 304.645C2574.96 310.278 2569.66 316.038 2564.5 321.878C2560.8 326.035 2557.13 330.265 2553.54 334.548C2478.26 423.923 2428.84 529.278 2381.51 635.094C2330.47 749.134 2279.64 865.891 2197.38 961.594C2154.21 1011.79 2104.58 1056.21 2064.05 1108.67C2032.48 1149.58 2008.1 1195.02 1992.2 1244.24C1971.08 1309.44 1965.01 1379.02 1974.02 1446.63C1974.16 1447.88 1974.37 1449.12 1974.54 1450.32C1860.45 1564.72 1733.73 1667.56 1613 1773.81C1560.76 1819.75 1509.26 1866.55 1459.89 1915.63C1400.26 1970.62 1343.37 2028.68 1288.88 2088.67C1275.22 2103.67 1261.73 2118.82 1248.34 2134.1C1169.41 2224.02 1094.93 2318.42 1027.95 2417.34C944.359 2540.76 870.068 2671.04 796.025 2800.36C795.785 2800.77 795.571 2801.14 795.331 2801.56C791.473 2808.03 787.728 2814.62 784.074 2821.27C784.074 2821.27 784.074 2821.27 784.048 2821.32C777.017 2833.6 770.006 2845.96 763.069 2858.29C795.047 2765.62 812.747 2667.67 831.049 2571.24C839.556 2526.38 847.999 2482.6 851.971 2437.16C854.399 2409.45 860.334 2384.33 875.491 2360.64C888.605 2340.27 905.399 2322.4 922.5 2305.39C926.599 2301.28 930.763 2297.27 934.974 2293.29C934.574 2293.98 934.2 2294.63 933.799 2295.32C938.349 2291.29 942.878 2287.18 947.335 2283.09C957.473 2278.03 967.361 2272.76 976.93 2267.62C1030.39 2238.79 1079.71 2202.82 1124.61 2162.01C1217.27 2077.79 1290.45 1973.89 1351.21 1865.03C1478.84 1636.16 1547.6 1381.2 1663.48 1146.84C1671.87 1129.85 1680.56 1112.98 1689.49 1096.24C1689.7 1095.87 1689.94 1095.45 1690.16 1095.08C1693.66 1088.47 1697.26 1081.91 1700.91 1075.39C1694.23 1079.48 1687.57 1083.65 1680.95 1087.85C1680.92 1087.9 1680.8 1087.89 1680.75 1087.98C1594.38 1142.83 1513.92 1206.89 1440.76 1278.38C1340.17 1376.45 1253.36 1488.89 1183.76 1611.03C1113.56 1734.23 1062.3 1866.71 1029.45 2004.57C1011.46 2080.28 994.354 2155.51 958.933 2225.41C949.978 2243.05 940.375 2260.33 930.448 2277.41C929.219 2279.54 928.018 2281.62 926.789 2283.75C907.809 2301.78 889.891 2320.85 874.383 2341.62C856.743 2365.23 845.639 2390.77 841.944 2420.02C840.2 2433.94 839.382 2447.96 838.041 2461.93C835.971 2483.67 831.895 2504.94 827.665 2526.36C812.49 2603.39 799.604 2680.93 780.743 2757.18C765.072 2820.53 744.782 2882.7 716.314 2941.2C640.987 3076.37 568.25 3213.03 499.532 3351.71C458.281 3435.02 418.418 3519.12 382.521 3604.9C356.287 3667.65 330.616 3731.76 315.051 3798.14C312.289 3809.87 309.951 3821.71 308.302 3833.65C307.235 3841.05 318.616 3843.98 319.69 3836.46C328.033 3776.4 350.107 3717.98 372 3661.79C404.098 3579.49 441.11 3499.04 479.437 3419.42C546.328 3280.48 618.057 3143.85 692.377 3008.72C692.537 3008.44 692.763 3008.26 692.95 3007.94C705.081 2988.43 716.067 2968.44 725.975 2948.07C740.62 2921.74 755.358 2895.47 770.161 2869.29C778.033 2855.34 785.925 2841.46 793.844 2827.53C793.978 2827.29 794.138 2827.02 794.271 2826.79C794.886 2825.72 795.526 2824.61 796.094 2823.52C797.403 2821.26 798.638 2819.01 799.947 2816.74C800.321 2816.09 800.668 2815.49 801.042 2814.85C844.269 2740.08 901.504 2676.3 965.899 2618.82C1032.29 2559.58 1102.16 2505.32 1190.84 2485.78C1228.93 2477.37 1268.04 2474.48 1306.89 2476.19C1307.12 2477.19 1307.39 2478.21 1307.62 2479.2C1307.87 2480.27 1308.16 2481.36 1308.48 2482.41C1329.44 2560.62 1372.93 2633.34 1429.53 2691.37C1539.64 2804.34 1693.48 2868.36 1845.21 2902.62C1982.58 2933.64 2125.47 2938.99 2264.83 2919.05C2334.91 2909.07 2404.05 2892.61 2471.01 2869.67C2521.48 2852.43 2570.52 2831.47 2619.77 2811.12C2620.4 2810.87 2621.07 2810.57 2621.63 2810.35C2631.25 2806.4 2640.82 2802.43 2650.45 2798.56C2653.32 2797.44 2656.17 2796.24 2659.06 2795.08C2664.11 2793.06 2669.24 2791.02 2674.33 2789.03C2655.79 2792.63 2637.21 2795.97 2618.56 2799.01L2618.72 2799.04ZM2221.69 2045.43C2174.75 2007.54 2133.44 1962.23 2103.16 1910.64C2111.13 1912.96 2119.05 1915.37 2126.91 1917.88C2127.1 1917.99 2127.29 1917.97 2127.48 1918.08C2168.07 1931.84 2207.68 1948.91 2246.73 1966.4C2247.57 1966.76 2248.44 1966.95 2249.18 1966.95C2371.9 2024.97 2487.34 2103.28 2604.16 2168.63C2650.71 2194.7 2698.15 2218.82 2746.76 2239.73C2563.13 2201.12 2371.37 2166.14 2221.65 2045.41L2221.69 2045.43ZM2222.3 1864.29C2288.1 1857.25 2355.03 1866.3 2417.86 1886.29C2491.38 1909.68 2559.25 1948.5 2622.51 1992.11C2689.67 2038.35 2754.26 2089.7 2815.97 2143.03C2852.05 2174.22 2886.72 2207.74 2914.94 2246.36C2924.69 2259.7 2933.61 2273.61 2941.58 2288.01C2898.77 2274.89 2855.43 2263.87 2812.51 2254.14C2807.71 2252.41 2802.93 2250.64 2798.11 2248.84C2743.16 2228.03 2690.22 2202.22 2638.56 2174.3C2533.5 2117.53 2433.75 2051.68 2328.72 1994.86C2275.77 1966.2 2221.18 1940.05 2164.78 1919.27C2164.34 1919.07 2163.91 1918.95 2163.47 1918.76C2143.57 1911.15 2123.43 1904.15 2103.02 1898.17C2140.25 1879.51 2181.84 1868.68 2222.2 1864.35L2222.3 1864.29ZM3151.97 882.143C3152.69 881.755 3153.33 881.387 3154 880.973C3139.74 891.674 3125.76 902.655 3112.1 913.704C2931.96 1059.4 2772.29 1242.39 2549.45 1324.03C2483.76 1348.09 2414.15 1362.48 2344.69 1362.09C2359.21 1351.04 2373.83 1340.13 2388.6 1329.41C2395.33 1324.79 2402.05 1320.09 2408.74 1315.45C2409.49 1314.89 2410.08 1314.31 2410.48 1313.61C2472.75 1269.21 2536.78 1227.42 2601.75 1187.1C2690.38 1132.07 2780.86 1080.46 2872.87 1031.33C2965.94 981.643 3059.85 933.49 3152.01 882.169L3151.97 882.143ZM2559.33 1102.48C2623.03 1052.18 2693.84 1011.04 2769.05 980.641C2845.41 949.74 2925.25 928.738 3005.44 910.34C3045.33 901.177 3085.39 892.36 3125.42 883.588C3050.29 924.949 2974.06 964.377 2898.46 1004.42C2720.74 1098.6 2545.97 1200.17 2383.25 1318.8C2371.97 1326.47 2360.65 1334.12 2349.2 1341.57C2403.93 1250.07 2475.51 1168.61 2559.28 1102.45L2559.33 1102.48ZM2460.29 680.333C2433.88 790.156 2404.31 899.694 2351.94 1000.45C2301.4 1097.81 2234.12 1185.4 2159.91 1265.77C2143.27 1283.79 2126.27 1301.48 2108.98 1318.94C2130.01 1293.09 2150.2 1266.45 2169.26 1239.1C2209.01 1189.15 2246.7 1137.65 2279.06 1082.45C2312.99 1024.64 2337.68 962.669 2361.92 900.38C2386.48 837.225 2409.49 773.546 2432.18 709.68C2460.49 630 2488.39 550.153 2518.08 470.962C2495.81 539.878 2477.2 609.803 2460.26 680.379L2460.29 680.333ZM1984.57 1437C1978.2 1381.27 1982.34 1324.33 1996.77 1270.07C2009.35 1222.75 2029.72 1177.65 2057.45 1137.3C2094.73 1083.09 2143.65 1038.31 2187.81 989.924C2269.95 899.885 2323.84 791.806 2373.5 681.536C2420.44 577.157 2465.26 470.807 2533.81 378.229C2539.05 371.197 2544.34 364.265 2549.83 357.439C2510.17 455.293 2474.71 554.835 2439.45 654.364C2416.8 718.376 2394.15 782.388 2370.28 845.944C2346.3 909.923 2322.7 975.05 2291.36 1035.84C2255.06 1106.4 2208.9 1170.65 2159.55 1232.63C2121.77 1280.13 2082.12 1326.25 2043.67 1372.88C2032.96 1385.87 2022.32 1398.97 2011.69 1412.14C2011.23 1412.61 2010.75 1413.13 2010.26 1413.66C2001.73 1421.49 1993.12 1429.35 1984.57 1437.12L1984.57 1437ZM1525.06 1441.39C1433.19 1677.21 1339.59 1921.9 1162.25 2108.57C1114.67 2158.61 1061.4 2203.35 1002.37 2239.26C995.34 2243.53 988.247 2247.7 981.114 2251.72C991.455 2242.89 1001.89 2234.11 1012.36 2225.48C1014.63 2223.58 1014.72 2221.17 1013.65 2219.19C1021.27 2211.44 1028.75 2203.49 1036.15 2195.49C1096.37 2130.17 1142.05 2056.82 1182.67 1978.02C1276.65 1795.71 1342 1599.83 1447.45 1423.28C1508.77 1320.6 1580.06 1224.67 1657.06 1133.39C1606.99 1233.37 1565.28 1338.18 1525.09 1441.34L1525.06 1441.39ZM994.729 2173.98C1008.28 2138.76 1018.1 2102.31 1027.07 2065.73C1044.36 1994.87 1060.78 1924.24 1084.97 1855.32C1108.73 1787.57 1137.71 1721.66 1171.29 1658.16C1237.45 1532.99 1321.44 1417.44 1419.88 1315.72C1490.62 1242.65 1568.82 1176.74 1653.12 1119.82C1590.03 1194.16 1530.69 1271.52 1477.3 1353.31C1421.86 1438.23 1374.7 1527.5 1332.7 1619.68C1289.68 1714.06 1250.51 1810.22 1206.07 1903.96C1165.42 1989.64 1121.7 2075.84 1060.91 2149.29C1033.69 2182.23 1004.05 2213.16 973.158 2242.75C966.934 2247.97 960.684 2253.24 954.526 2258.57C969.593 2231.19 983.43 2203.16 994.61 2173.97L994.729 2173.98ZM1493.34 2445.94C1610.77 2452.32 1719.7 2506.02 1821.27 2561.14C1928.07 2619.17 2033.77 2678.77 2146.58 2724.79C2252.59 2768.05 2363.56 2800.17 2477.89 2810.43C2490.15 2811.52 2502.45 2812.33 2514.76 2812.9C2443.36 2820.03 2371.52 2821.73 2299.67 2815.64C2222.9 2809.12 2146.57 2793.6 2074.27 2766.6C1993.46 2736.41 1921.6 2689.44 1850.16 2641.96C1783.04 2597.35 1715.19 2554.11 1639.89 2524.51C1575.75 2499.32 1508.35 2482.85 1439.86 2475.01C1406.11 2471.19 1372.05 2469.41 1338.11 2469.86C1337.67 2468.92 1337 2468.04 1336.1 2467.46C1385.9 2449.47 1440.51 2443.01 1493.36 2445.89L1493.34 2445.94ZM2540.56 2831.13C2477.97 2856.23 2414.17 2877.43 2348.26 2892.04C2211.09 2922.5 2068.09 2927.39 1929.08 2906.46C1778.95 2883.86 1625.78 2833.29 1503.69 2740.97C1418.18 2676.3 1348.72 2585.33 1320.18 2482.01C1347.68 2481.06 1375.25 2481.49 1402.77 2483.38C1472.23 2488.15 1541.08 2502 1606.9 2524.83C1682.19 2550.9 1750.45 2590.44 1816.8 2634.05C1888.34 2681.03 1958.7 2730.71 2037.78 2764.65C2107.83 2794.68 2182.34 2813.46 2257.86 2823.01C2363.09 2836.34 2468.87 2832.04 2573.52 2817.72C2562.53 2822.23 2551.47 2826.76 2540.41 2831.17L2540.56 2831.13Z" fill="#CCB282" fill-opacity="0.35"/>
</svg>
