<svg width="2844" height="3171" viewBox="0 0 2844 3171" fill="none" xmlns="http://www.w3.org/2000/svg">
<path d="M633.619 708.832C633.233 708.562 632.839 708.246 632.461 708.024C631.476 698.152 632.713 687.74 632.842 678.154C633.064 661.498 629.767 645.421 623.405 630.035C609.934 597.511 584.894 570.816 558.268 548.507C502.468 501.785 432.521 471.638 384.987 415.184C367.408 394.308 349.625 352.216 315.184 364.144C302.037 368.707 295.136 380.949 299.375 394.443C301.611 401.58 306.199 407.815 309.331 414.551C313.623 423.737 316.42 433.479 318.562 443.337C325.79 476.876 325.867 511.494 340.222 543.281C353.415 572.618 375.239 596.988 400.096 616.954C412.725 627.119 426.179 636.22 440.164 644.501C422.386 643.126 404.707 642.313 387.693 641.43C337.76 638.777 287.917 634.465 238.307 628.47C214.171 625.571 190.054 622.233 166.066 618.534C147.489 615.659 128.953 612.198 110.034 612.282C94.8276 612.333 78.9084 614.346 65.4024 621.774C55.2379 627.352 38.813 640.903 42.3458 654.233C43.9778 660.415 49.1974 663.688 54.5293 666.506C66.5304 672.87 78.9298 678.487 91.1065 684.482C113.07 695.255 135.042 706.075 157.013 716.895C199.887 737.952 243.135 762.468 290.67 770.91C326.281 777.224 362.642 774.179 397.911 767.175C409.807 764.815 421.621 761.987 433.448 758.964C387.241 789.99 346.392 829.673 317.83 877.603C309.832 891.005 302.856 904.999 296.981 919.473C292.118 931.497 284.332 947.18 286.372 960.535C289.873 983.724 320.487 987.74 337.896 978.361C351.286 971.098 360.127 957.545 368.869 945.604C379.158 931.503 390.917 920.232 406.074 911.496C432.846 896.103 463.166 888.434 490.241 873.663C522.64 855.964 548.234 828.801 570.784 800.007C582.795 784.731 593.87 768.8 605.377 753.13C612.062 744.018 619.032 735.145 627.141 727.519C628.379 726.332 629.672 725.184 630.973 724.083C631.972 723.181 633.025 722.317 634.088 721.5C634.674 721.54 635.206 721.542 635.801 721.629C635.942 721.604 636.09 721.626 636.239 721.648C639.791 722.61 643.344 723.571 646.858 724.588C773.001 760.282 892.608 819.215 1001.84 892.6C1051 925.628 1097.94 961.37 1142.87 999.401C1148.15 1008.17 1153.66 1016.85 1158.77 1025.75C1166.59 1039.28 1173.14 1053.33 1176.97 1068.58C1180.68 1083.43 1182.57 1098.65 1185.76 1113.58C1164.26 1107.31 1143.37 1099.59 1124.52 1087.29C1106.48 1075.53 1090.36 1061.21 1072.88 1048.77C1056.83 1037.33 1039.05 1027.21 1019.71 1022.78C1005.71 1019.57 986.016 1017.48 973.327 1025.97C943.775 1045.82 987.887 1091.19 1003.66 1104.66C1033.28 1129.91 1067.74 1148.75 1097.49 1173.98C1130.43 1201.92 1160.69 1232.95 1194.6 1259.81C1203.42 1266.79 1212.53 1273.43 1221.86 1279.73C1207.04 1283 1192.6 1288.47 1178.11 1295.78C1161.7 1304.02 1145.51 1311.01 1127.51 1314.89C1111.18 1318.38 1094.5 1319.95 1077.88 1321.26C1061.92 1322.51 1045.93 1323.57 1030.03 1325.68C1015.59 1327.62 998.961 1329.71 985.663 1336.14C974.41 1341.57 976.136 1353.43 983.674 1361.32C994.678 1372.93 1011.64 1380.3 1026.66 1384.92C1061.45 1395.58 1098.06 1392.83 1133.84 1391.43C1152.36 1390.69 1170.99 1390.37 1189.42 1392.69C1207.9 1395.01 1225.39 1401.02 1242.81 1407.43C1278.85 1420.72 1313.72 1432.1 1351.47 1418.18C1369.79 1411.44 1386.66 1401.24 1403.68 1391.83C1423.86 1380.65 1444.04 1369.48 1464.22 1358.3C1464.62 1358.09 1464.92 1357.89 1465.21 1357.59C1467.24 1358.44 1469.23 1359.29 1471.25 1360.09C1471.26 1360.14 1471.36 1360.12 1471.41 1360.16C1471.98 1360.4 1472.49 1360.5 1473.03 1360.55C1474.8 1360.72 1476.18 1359.8 1477.04 1358.43C1478.87 1360.81 1480.7 1363.24 1482.53 1365.62C1485.23 1369.15 1487.89 1372.68 1490.55 1376.22C1569.31 1480.58 1642.51 1588.93 1715.06 1697.73C1694.38 1682.77 1673.6 1668.02 1653.14 1652.97C1650.03 1650.67 1644.97 1653.22 1645.04 1657.12C1645.08 1658.7 1645.11 1660.24 1645.25 1661.81C1646.87 1687.99 1657.97 1711.57 1671.69 1733.81C1687.78 1759.88 1705.05 1784.43 1717.94 1812.37C1724.53 1826.61 1731.18 1840.88 1740.83 1853.31C1742.21 1855.09 1743.63 1856.82 1745.13 1858.44C1718.4 1854.8 1691.23 1854.95 1664.46 1851.65C1647.47 1849.55 1631.76 1844.86 1615.52 1839.88C1602.89 1836 1589.07 1832.95 1576.14 1837.38C1551.56 1845.81 1545.25 1871.42 1563.79 1889.57C1586.18 1911.42 1613.9 1929.58 1640.39 1945.97C1667.81 1962.97 1696.54 1977.8 1726.17 1990.44C1730.46 1992.29 1734.79 1994.08 1739.1 1995.77C1718.22 2000.84 1697.38 2006.15 1676.5 2011.22C1643.12 2019.33 1608.69 2025.9 1575.83 2035.86C1558.88 2041 1535.54 2060.51 1556.67 2076.65C1566.62 2084.2 1580.49 2088.88 1592.1 2093.34C1604.39 2098.05 1616.97 2101.95 1629.75 2105.13C1681.28 2117.84 1735.83 2118.17 1787.59 2106.4C1816.23 2099.89 1844.15 2089.61 1870.04 2075.73C1882.07 2069.28 1894.68 2059.26 1907.89 2051.26C1910.95 2049.41 1913.98 2047.71 1917.08 2046.15C1918.46 2045.47 1919.83 2044.79 1921.22 2044.2C1924.49 2042.75 1927.76 2041.54 1931.07 2040.61C1932.4 2040.23 1933.79 2039.89 1935.19 2039.64C1937.71 2039.14 1940.21 2038.79 1942.75 2038.68C1944.19 2038.61 1945.6 2038.65 1947.05 2038.68C1947.54 2038.69 1948.03 2038.75 1948.52 2038.81C1949.62 2040.35 1950.71 2041.85 1951.85 2043.39C2041.25 2165.71 2136.99 2283.18 2245.57 2389.28C2393.68 2533.95 2565.74 2657.97 2761.64 2728.68C2786.25 2737.53 2811.19 2745.51 2836.38 2752.66C2842.79 2754.51 2846.05 2744.57 2839.58 2742.72C2633.37 2684.04 2450.7 2565.53 2294.22 2421.05C2168.32 2304.79 2059.22 2172.79 1958.41 2034.68C1961.85 2030.4 1965.5 2026.22 1969.15 2022.29C1990.26 1999.5 2013.61 1979.01 2029.41 1951.91C2062.02 1896.06 2065.76 1829.46 2060.53 1766.44C2059.17 1750.41 2057.33 1734.36 2055.31 1718.39C2053.95 1707.77 2055.05 1690.33 2047.18 1681.97C2040.2 1674.52 2029.1 1676.98 2021.76 1682.44C2012.89 1689.04 2008.85 1699.47 2006.66 1709.91C2003.69 1724.16 2003.27 1738.62 1999.04 1752.61C1993.95 1769.6 1986.79 1786.04 1980.36 1802.6C1976.62 1812.25 1972.88 1821.9 1969.19 1831.54C1966.74 1822.12 1963.92 1812.77 1961.16 1803.55C1952.04 1772.91 1942.92 1742.32 1933.75 1711.68C1929.4 1697.05 1925 1682.38 1920.61 1667.75C1917.66 1657.94 1915.72 1644.08 1906.85 1637.4C1901.22 1633.19 1892.38 1632.35 1886.87 1637.24C1879.42 1643.93 1880.51 1660.88 1879.47 1670C1873.12 1725.47 1871.59 1781.44 1874.94 1837.16C1859.14 1816.79 1840.99 1798.14 1821.66 1781.01C1795.5 1757.75 1767.66 1736.23 1739.35 1715.34C1662.95 1600.65 1586.3 1486.2 1503.5 1375.99C1498.88 1369.86 1494.21 1363.68 1489.55 1357.61C1537.98 1300.54 1562.09 1227.32 1584.31 1156.56C1598.66 1110.97 1612.86 1064.87 1634.62 1022.12C1652.94 986.152 1682.13 951.249 1681.63 908.833C1681.48 893.065 1677.23 874.888 1665.79 863.256C1655.41 852.691 1643.06 859.043 1634.61 868.519C1622.33 882.297 1611.24 895.429 1596.39 906.719C1581.12 918.326 1564.51 928.142 1548.07 938.073C1516.53 957.068 1485.41 976.81 1462.5 1006.3C1446.71 1026.64 1435.21 1049.94 1427.49 1074.4C1427.54 1074.15 1427.59 1073.9 1427.7 1073.69L1427.68 1073.6C1428.07 1071.45 1428.42 1069.36 1428.82 1067.26C1436.01 1027.58 1440.5 989.057 1426.5 950.301C1412.9 912.728 1389.89 878.473 1368.05 845.315C1356.39 827.587 1344.46 809.909 1331.77 792.896C1322.77 780.877 1310.87 768.844 1294.56 770.588C1279.69 772.222 1272.45 783.412 1273.63 797.644C1275.46 820.116 1279.39 842.457 1281.32 864.96C1285.12 908.817 1286.53 952.811 1285.57 996.791C1285.29 1010.41 1284.5 1024.13 1283.95 1037.85C1280.07 1035.59 1276.19 1033.38 1272.43 1031.2C1241.99 1013.82 1215.7 992.279 1188.6 970.297C1175.27 959.483 1161.39 947.995 1146.15 939.986C1137.52 935.437 1127.85 933.198 1119.82 939.941C1118.43 941.105 1117.79 943.2 1118.2 944.962C1120.61 955.209 1124.34 964.784 1128.84 974.03C1105.03 954.506 1080.59 935.574 1055.57 917.376C932.6 827.888 795.32 755.149 648.904 713.838C648.135 713.589 647.328 713.395 646.559 713.145C644.277 712.537 642.081 711.865 639.807 711.304C638.388 710.929 636.969 710.554 635.549 710.179C635.431 710.055 635.367 709.97 635.257 709.893C634.752 709.499 634.192 709.068 633.649 708.73L633.619 708.832ZM1611.92 1914.38C1600.79 1906.41 1589.84 1898.07 1579.35 1889.31C1567.32 1879.28 1554.27 1864.31 1571.14 1851.6C1583.4 1842.36 1598.82 1845.7 1612.36 1849.82C1626.41 1854.12 1640.12 1858.44 1654.69 1860.78C1684.22 1865.47 1714.35 1864.6 1743.92 1868.75C1748.97 1869.44 1753.96 1870.34 1758.93 1871.39C1772.53 1874.28 1785.79 1878.49 1798.59 1883.89C1804.65 1886.44 1810.56 1889.29 1816.38 1892.41C1819.95 1894.29 1823.41 1896.33 1826.87 1898.42C1842.35 1907.74 1856.7 1918.9 1869.57 1931.49C1873.37 1935.2 1877.04 1938.99 1880.51 1943.01C1883.43 1947.23 1886.35 1951.44 1889.32 1955.64C1894.25 1962.69 1899.17 1969.73 1904.15 1976.77C1906.09 1979.56 1908.09 1982.39 1910.09 1985.18C1910.35 1985.57 1910.6 1985.91 1910.87 1986.3C1911.87 1988.15 1912.83 1990 1913.8 1991.91C1912.05 1991.3 1910.26 1990.75 1908.52 1990.19C1908.01 1990.04 1907.49 1989.84 1906.98 1989.69C1903.21 1988.58 1899.39 1987.52 1895.62 1986.64C1857.09 1977.27 1816.87 1978.16 1776.53 1987.03C1770.11 1988.42 1763.75 1989.89 1757.36 1991.41C1705.85 1972.33 1656.86 1946.46 1612.06 1914.35L1611.92 1914.38ZM1892.18 2050.1C1872.01 2063.49 1850.59 2074.75 1827.93 2083.37C1781.95 2100.78 1731.93 2107.42 1683 2103.33C1658.78 2101.32 1634.85 2096.59 1611.7 2089.17C1600.68 2085.63 1589.85 2081.47 1579.25 2076.74C1573.99 2074.34 1560.11 2069.91 1558.88 2063.02C1557.51 2055.3 1568.16 2050.02 1573.73 2047.68C1587.08 2042.06 1602.8 2039.99 1616.87 2036.57C1632.84 2032.66 1648.85 2028.75 1664.82 2024.84C1694.77 2017.53 1724.68 2010.27 1754.63 2002.96C1755.32 2002.79 1756.02 2002.61 1756.71 2002.44C1763.05 2000.88 1769.45 1999.4 1775.82 1997.98C1800.96 1992.44 1826.33 1988.4 1852.35 1989.95C1867.87 1990.86 1883.16 1993.45 1898.01 1997.62C1900.65 1998.36 1903.25 1999.15 1905.86 1999.94C1907.09 2000.35 1908.32 2000.76 1909.61 2001.2C1911.71 2001.89 1913.78 2002.64 1915.79 2003.39C1917.14 2003.87 1918.49 2004.4 1919.79 2004.95C1921.82 2005.74 1923.8 2006.55 1925.78 2007.4C1925.88 2007.39 1925.93 2007.43 1925.99 2007.51C1928.57 2011.11 1931.15 2014.76 1933.76 2018.3C1934.27 2018.98 1934.72 2019.63 1935.18 2020.32C1937.1 2022.97 1938.97 2025.58 1940.88 2028.19C1938.73 2028.33 1936.61 2028.61 1934.51 2029.03C1933.62 2029.19 1932.78 2029.34 1931.91 2029.6C1928.2 2030.5 1924.61 2031.72 1921.06 2033.26C1918.86 2034.19 1916.68 2035.21 1914.56 2036.35C1913.68 2036.8 1912.84 2037.24 1911.96 2037.74C1909.63 2039.02 1907.26 2040.36 1905 2041.78C1900.64 2044.44 1896.37 2047.27 1892.18 2050.1ZM1982.8 1825.25C1993.62 1797.29 2008.13 1768.62 2012.96 1738.83C2014.74 1727.89 2015.14 1716.61 2018.42 1705.98C2020.17 1700.35 2022.79 1694.72 2027.59 1691.02C2040.39 1681.25 2042.08 1697.52 2043.04 1705.07C2047.08 1735.65 2050.98 1766.26 2051.9 1797.15C2053.71 1855.61 2044.36 1917.32 2008.03 1965.03C1992.1 1985.98 1970.17 2005.2 1952.3 2026.4C1950.06 2023.32 1947.82 2020.19 1945.57 2017.07C1942.69 2013.09 1939.8 2009.11 1936.97 2005.12C1937.29 2003.95 1937.66 2002.78 1937.99 2001.61C1950.13 1962.11 1973.9 1925.52 1975.84 1883.24C1976.35 1872 1975.28 1860.84 1973.22 1849.85C1976.4 1841.65 1979.58 1833.46 1982.76 1825.26L1982.8 1825.25ZM1885.49 1720.37C1886.21 1708.65 1887.17 1696.99 1888.33 1685.28C1888.99 1678.69 1888.89 1645.58 1896.84 1644.4C1906.44 1642.94 1912.16 1675.92 1914.02 1682.01C1918.2 1696 1922.38 1709.99 1926.51 1723.94C1934.65 1751.23 1942.8 1778.52 1950.94 1805.81C1955.15 1819.93 1959.59 1834.31 1962.47 1848.87C1963.89 1856 1964.87 1863.17 1965.3 1870.44C1965.49 1873.93 1965.59 1877.49 1965.48 1880.98C1964.27 1921.63 1942.36 1957.02 1929.58 1994.85C1926.88 1991.08 1924.18 1987.31 1921.52 1983.48C1920.82 1982.54 1920.17 1981.6 1919.52 1980.65C1917.96 1977.84 1916.39 1975.02 1914.74 1972.23C1909.85 1964.06 1904.49 1956.18 1898.71 1948.66C1894.4 1924.46 1890.97 1900.05 1888.53 1875.51C1887.78 1868.06 1887.13 1860.59 1886.52 1853.12C1883.11 1809 1882.75 1764.62 1885.49 1720.37ZM1810.97 1785.52C1835.12 1806.67 1857.82 1830.26 1876.27 1856.58C1878.24 1881.74 1881.26 1906.8 1885.2 1931.7C1885.28 1932.12 1885.36 1932.54 1885.42 1932.91C1875.66 1922.29 1864.94 1912.55 1853.43 1903.78C1848.07 1899.76 1842.61 1895.95 1836.95 1892.37C1814.52 1878.16 1789.59 1867.53 1763.59 1861.77C1760.7 1859.34 1757.87 1856.75 1755.25 1853.98C1743.42 1841.55 1735.96 1826.21 1728.82 1810.82C1716.62 1784.59 1701.51 1761.05 1685.94 1736.78C1672.37 1715.67 1659.64 1693.26 1656.34 1668.24C1681.32 1686.45 1706.79 1704.42 1731.81 1722.86C1740.15 1729.01 1748.44 1735.16 1756.7 1741.42C1775.26 1755.6 1793.51 1770.18 1810.97 1785.52ZM1234.33 1275.44C1168.97 1233.07 1118.84 1171.82 1054.24 1128.3C1026.42 1109.54 994.577 1090.24 979.213 1059.02C973.686 1047.78 972.151 1034.82 987.16 1031.76C997.316 1029.67 1008.17 1030.68 1018.12 1033.11C1036.64 1037.59 1053.33 1047.47 1068.63 1058.55C1084.49 1070.03 1099.35 1082.94 1115.55 1093.91C1131.69 1104.81 1149.31 1112.87 1167.79 1119C1174.67 1121.3 1181.65 1123.35 1188.62 1125.34C1192.75 1126.54 1196.91 1127.68 1201.07 1128.78C1229 1136.46 1256.98 1143.6 1282.87 1157.39C1292.16 1162.36 1301.1 1167.82 1309.64 1173.73C1317.24 1179 1324.56 1184.55 1331.65 1190.49C1348.1 1204.17 1363.14 1219.46 1377.12 1235.86L1377.75 1235.36C1402.88 1264.75 1427.4 1294.72 1451.31 1325.15C1454.38 1329.09 1457.45 1333.04 1460.52 1336.98C1461.89 1340.02 1463.29 1343.06 1464.7 1346.09C1460.27 1344.23 1455.84 1342.41 1451.35 1340.55C1449.99 1339.97 1448.69 1339.43 1447.33 1338.85C1444.2 1337.57 1441.13 1336.28 1438.05 1335C1432.21 1332.61 1426.41 1330.16 1420.58 1327.77C1401.7 1319.93 1382.82 1312.13 1363.87 1304.44C1333.88 1292.25 1302.99 1280.99 1270.64 1277.28C1259 1275.92 1247.86 1275.98 1237.06 1277.22C1236.19 1276.65 1235.32 1276.08 1234.45 1275.56L1234.33 1275.44ZM1366.82 1399.94C1353.26 1406.8 1338.9 1412.69 1323.69 1414.33C1306.1 1416.21 1288.56 1412.09 1271.94 1406.64C1240.92 1396.52 1211.88 1383.48 1178.9 1381.04C1146.01 1378.64 1113.15 1383.18 1080.23 1382.24C1062.65 1381.69 1044.95 1379.68 1028.16 1374.31C1019.86 1371.68 1011.86 1368.23 1004.39 1363.72C998.162 1359.95 980.374 1348.48 995.082 1343.73C1024.27 1334.33 1055.43 1333.52 1085.69 1330.93C1113.95 1328.51 1141.84 1324.32 1167.82 1312.35C1183.45 1305.17 1198.32 1296.15 1214.95 1291.35C1221.19 1289.52 1227.49 1288.3 1233.92 1287.49C1240.02 1286.74 1246.14 1286.42 1252.29 1286.49C1254.95 1286.5 1257.62 1286.6 1260.26 1286.76C1294.48 1288.83 1327.41 1300.94 1358.95 1313.67C1383.1 1323.43 1407.14 1333.4 1431.19 1343.41C1438.44 1346.42 1445.7 1349.48 1452.99 1352.48C1451.36 1353.35 1449.78 1354.25 1448.21 1355.16C1421.2 1370.31 1394.38 1386 1366.77 1399.95L1366.82 1399.94ZM1451.06 1044.03C1468.25 1010.39 1494.19 984.859 1525.56 964.396C1553.08 946.407 1582.57 931.398 1608.32 910.778C1621.3 900.4 1631.17 888.305 1642.07 875.981C1644.44 873.288 1648.2 868.657 1652.05 868.263C1657.96 867.596 1661.66 874.763 1663.92 878.804C1668.4 886.893 1670.65 896.25 1671.13 905.439C1673.16 946.955 1643.75 981.462 1625.89 1016.52C1607.07 1053.49 1593.64 1092.83 1581.06 1132.31C1557.92 1205.02 1536.15 1282.12 1488.52 1342.58C1486.82 1344.71 1485.13 1346.85 1483.37 1348.95C1483.25 1349.07 1483.17 1349.18 1483.05 1349.3C1482.93 1349.17 1482.85 1348.99 1482.73 1348.87C1481.23 1346.92 1479.77 1344.96 1478.26 1343C1475.31 1339.18 1472.36 1335.36 1469.37 1331.59C1461.31 1313.75 1453.88 1295.61 1447.5 1277.14C1433.82 1237.45 1424.95 1196.34 1425.49 1154.07C1425.96 1116.26 1433.76 1077.92 1451.03 1044.13L1451.06 1044.03ZM1294.61 904.569C1293.5 884.238 1291.91 863.943 1289.76 843.702C1288.86 835.409 1287.96 827.116 1286.93 818.848C1285.82 809.916 1279.77 791.141 1287.22 784.406C1305.05 768.189 1325.27 801.443 1333.34 812.854C1345.14 829.494 1356.51 846.404 1367.53 863.568C1387.79 895.126 1409.67 927.939 1420.15 964.28C1431.03 1002.09 1423.08 1039.64 1416.53 1077.42C1405.28 1142.31 1398.31 1216 1435.7 1273.83C1436.83 1277.15 1437.96 1280.53 1439.13 1283.84C1441.16 1289.57 1443.24 1295.28 1445.46 1300.97C1426.31 1276.95 1406.78 1253.23 1386.83 1229.93L1386.29 1230.41C1365.96 1206.31 1343.23 1184.42 1317.46 1166.4C1312.61 1157.31 1308.2 1148.05 1304.61 1138.45C1304.08 1137.1 1303.59 1135.69 1303.1 1134.28C1294.28 1108.89 1293.14 1082.43 1294.07 1055.9C1294.19 1051.96 1294.36 1048.07 1294.59 1044.16C1294.59 1044.16 1294.48 1044.09 1294.43 1044.1C1294.64 1037.97 1294.9 1031.84 1295.12 1025.76C1296.82 985.369 1296.77 944.949 1294.61 904.569ZM1129.33 946.411C1139.25 943.291 1157.04 959.348 1163.21 963.9C1175.04 972.565 1186.38 981.994 1197.7 991.329C1220.7 1010.32 1244.15 1027.3 1270.1 1042C1274.5 1044.5 1279.02 1047.08 1283.66 1049.78C1282.6 1072.09 1282.8 1094.32 1287.28 1116.23C1287.6 1118.05 1288.07 1119.9 1288.49 1121.71C1290.34 1129.35 1292.73 1136.85 1295.57 1144.12C1297.07 1147.91 1298.66 1151.68 1300.33 1155.39C1268.15 1136.3 1233.2 1126.92 1197.47 1116.95C1196.01 1111.47 1194.79 1105.74 1193.71 1099.9C1188.64 1071.72 1182.57 1046.33 1168.22 1021.31C1168.2 1021.22 1168.13 1021.08 1168.06 1021C1162.48 1011.32 1156.4 1001.87 1150.63 992.271C1141.91 977.74 1133.86 962.896 1129.38 946.449L1129.33 946.411ZM435.698 629.453C409.511 612.863 384.944 592.893 366.542 567.672C346.371 540.109 338.844 509.232 334.325 475.984C332.18 460.136 330.205 444.162 325.68 428.787C323.617 421.812 321.086 414.921 317.941 408.381C314.221 400.784 306.466 391.683 309.089 382.811C311.742 373.838 324.073 371.208 332.156 373.198C341.437 375.409 348.46 383.384 354.044 390.601C364.348 403.982 373.033 418.037 384.578 430.52C429.635 479.3 490.713 508.467 542.427 549.058C572.073 572.325 600.509 600.735 614.663 636.277C622.245 655.262 622.364 673.837 621.836 693.927C621.749 696.696 621.748 699.401 621.802 702.145C621.835 703.685 621.922 705.263 622.049 706.786C615.879 705.228 609.708 703.67 603.516 702.261C601.351 700.135 599.193 698.056 596.912 696.095C561.367 664.652 514.253 652.61 466.109 646.981C455.721 641.537 445.508 635.724 435.604 629.47L435.698 629.453ZM345.574 763.501C305.614 765.593 268.14 756.954 231.499 741.066C188.307 722.287 146.429 700.038 104.184 679.255C94.4438 674.469 84.6489 669.644 74.9091 664.857C65.853 660.384 48.6345 655.915 56.2397 643.016C64.2683 629.511 83.4943 624.639 97.9268 623.229C113.781 621.662 129.929 623.375 145.615 625.75C166.963 629.001 188.29 632.401 209.767 635.29C255.29 641.385 300.993 646.048 346.836 649.333C381.811 651.8 421.652 651.757 460.586 655.838C472.006 657.041 483.297 658.605 494.399 660.734C526.184 666.715 556.149 677.126 580.929 695.85C581.039 695.927 581.15 696.004 581.268 696.128C580.034 696.251 578.745 696.335 577.52 696.505C571.733 697.101 565.974 698.126 560.321 699.471C556.843 700.283 553.429 701.181 550.031 702.172C547.506 702.912 544.989 703.698 542.481 704.531C515.529 713.484 489.386 725.626 464.648 739.691C458.802 741.311 453.003 742.923 447.204 744.536C413.983 753.542 380.143 761.79 345.637 763.586L345.574 763.501ZM584.683 763.866C566.549 788.976 547.922 814.028 525.17 835.178C502.913 855.853 477.621 869.244 449.669 880.452C424.559 890.526 398.17 900.2 377.924 918.875C359.048 936.292 345.829 974.63 315.557 972.533C309.978 972.126 303.516 970.282 299.815 965.773C294.157 958.955 297.303 950.039 299.729 942.507C304.338 927.968 310.17 913.792 317.126 900.236C343.874 848.09 385.49 804.84 433.313 771.498C444.787 763.514 456.69 756.033 468.897 749.174C484.645 740.236 500.905 732.269 517.527 725.252C519.091 724.539 520.71 723.864 522.29 723.245C538.392 716.562 556.954 709.586 575.393 707.076C580.008 708.041 584.632 709.053 589.209 710.073C590.654 710.589 592.098 711.105 593.542 711.621C595.913 712.454 598.33 713.28 600.7 714.114C606.775 716.22 612.833 718.232 618.891 720.245C619.009 720.369 619.081 720.501 619.153 720.633C619.029 720.752 618.867 720.925 618.743 721.044C616.353 723.353 614.073 725.74 611.856 728.212C601.854 739.315 593.315 751.848 584.59 763.883L584.683 763.866Z" fill="#CCB282" fill-opacity="0.35"/>
</svg>
