<svg width="6064" height="5065" viewBox="0 0 6064 5065" fill="none" xmlns="http://www.w3.org/2000/svg">
<path d="M2135.82 4057.59C2135.82 4056.85 2135.87 4056.24 2135.87 4055.5C2136.85 4021.12 2140.82 3985.55 2135.48 3951.37C2134.26 3943.47 2132.3 3935.77 2129.7 3928.2C2123.87 3911.29 2114.6 3895.37 2102.55 3880.88C2100.59 3872.45 2098.92 3864.01 2097.84 3855.58C2095.19 3835.12 2095.54 3814.44 2100.83 3792.83C2113.72 3740.15 2141.41 3690.82 2155.38 3638.22C2170.23 3582.59 2180.96 3526.39 2208.41 3473.75C2260.71 3373.59 2356.47 3294.18 2474.3 3247.76C2540.86 3221.56 2611.53 3203.3 2677.89 3176.78C2740.33 3151.81 2800.32 3123.4 2869.04 3112.27C3006.22 3090.12 3145.61 3122.54 3276.81 3154.02C3277.2 3154.1 3277.55 3154.22 3277.84 3154.3C3282.01 3154.26 3286.17 3154.3 3290.39 3154.39C3332.88 3155.08 3375.23 3160.16 3415.81 3170.06C3391.74 3139.98 3368.46 3109.48 3345.97 3078.58C3334.65 3068.63 3323.28 3058.89 3311.9 3049.31C3279.21 3021.84 3244.76 2994.46 3205.16 2973.99C3201.48 2972.07 3197.71 2970.23 3193.93 2968.47C3161.68 2962.33 3130.46 2964 3101.35 2978C3077.58 2989.42 3057.58 3005.47 3036.17 3019.67C3011.95 3035.72 2985.54 3049.35 2955.64 3056.55C2920.4 3065.11 2882.61 3064.99 2846.3 3063.31C2807.77 3061.51 2769.45 3057.58 2730.87 3057.21C2693.18 3056.84 2655.44 3059.3 2618.2 3064.29C2541.39 3074.57 2466.6 3095.77 2396.86 3124.38C2330.35 3151.6 2270.46 3187.05 2209.1 3221.27C2152.29 3252.91 2091.62 3284.02 2023.74 3295.36C1955.27 3306.78 1888.46 3293.89 1828.42 3265.28C1772.45 3238.59 1723.69 3201.38 1672.57 3168.75C1643.6 3150.29 1614.54 3132 1585.23 3113.9C1571.85 3105.68 1557.64 3097.9 1544.7 3089.22C1538.18 3084.84 1536.27 3080.21 1537.79 3073.21C1541.9 3053.65 1560.53 3032.94 1577.73 3019.96C1577.98 3019.76 1578.22 3019.55 1578.47 3019.35C1589.05 3011.73 1602.92 3009.15 1613.21 3001.46C1622.28 2999.29 1631.15 2996.46 1639.78 2993.19C1667.03 2983.04 1692.56 2968.59 1717.32 2954.96C1763.24 2929.62 1811.12 2906.98 1862 2889.3C1911.55 2872.07 1963.79 2859.62 2017.17 2854.42C2073.29 2848.98 2128.47 2853.24 2183.46 2863.31C2242.03 2873.99 2299.92 2888.93 2360.05 2892C2417.79 2894.95 2475.92 2888.32 2531.25 2874.6C2587.96 2860.56 2641.23 2838.42 2697.45 2823.07C2747.98 2809.27 2799.93 2802.81 2852.91 2808.99C2963.92 2821.96 3059.3 2880.17 3146.83 2934.61C3147.57 2935.06 3148.11 2935.51 3148.5 2936C3162.96 2940.79 3177.12 2946.24 3190.8 2952.34C3193.98 2953.77 3197.12 2955.24 3200.26 2956.72C3200.5 2956.84 3200.84 2956.96 3201.04 2957.13C3238 2974.89 3270.39 2997.94 3301.17 3022.5C3305.19 3025.69 3309.11 3028.88 3313.08 3032.12C3293.38 3003.71 3274.31 2975.01 3255.93 2946.07C3148.35 2776.4 3062.73 2593.63 3023.32 2403.87C2984.36 2352.58 2944.76 2301.57 2902.9 2251.96C2894.28 2241.73 2885.6 2231.53 2876.68 2221.47C2873.35 2217.62 2869.97 2213.81 2866.63 2210.04C2843.75 2201.57 2819.83 2195.02 2795.23 2190.68C2790.27 2189.82 2785.37 2189 2780.42 2188.31C2766.41 2186.34 2752.24 2185.07 2737.93 2184.58C2657.06 2181.8 2577.27 2197.52 2496.45 2197.4C2424.75 2197.27 2354.02 2184.3 2287.27 2162.68C2140.53 2115.2 2018.15 2029.28 1906.35 1938.94C1843.27 1887.98 1782.3 1835.17 1718.05 1785.11C1653.85 1735.09 1585.52 1690.23 1513.57 1648.31C1370.31 1564.85 1200.78 1477.04 1152.07 1327.55C1151.33 1325.3 1150.6 1322.97 1149.91 1320.68C1148.93 1317.48 1150.69 1313.64 1154.86 1312.69C1445.6 1247.28 1703.89 1425.02 1972.22 1482.28C2107.3 1511.1 2250.9 1520.11 2369.71 1586.75C2488.66 1653.43 2571.05 1756.62 2652.31 1853.14C2654.81 1856.05 2657.26 1859 2659.71 1861.94C2686.03 1893.09 2712.1 1924.61 2737.05 1956.83C2717.84 1906.56 2694.02 1857.52 2668.14 1809.38C2663.87 1801.4 2659.46 1793.46 2655.1 1785.56C2653.97 1784.21 2652.8 1782.9 2651.67 1781.55C2596.43 1718.06 2541.2 1654.49 2486.01 1590.96C2440.87 1539.02 2395.68 1487.11 2350.54 1435.17C2307.95 1386.17 2263.55 1337.79 2228.21 1284.78C2166.46 1192.02 2145.04 1084.65 2179.79 981.54C2197.73 928.163 2229.44 878.592 2241.05 823.618C2252.67 768.643 2245.51 714.365 2226.05 661.274C2207.72 611.171 2186.55 552.964 2227.23 506.054C2241.2 489.967 2268.6 472.242 2293.98 479.119C2296.48 479.815 2298.74 480.716 2300.85 481.903C2311.48 487.756 2316.92 499.013 2323.05 508.141C2323.49 508.755 2323.83 509.369 2324.27 509.983C2329.76 527.749 2335.89 545.391 2342.75 562.747C2363.24 614.896 2389.8 665.327 2421.95 713.383C2477.58 796.52 2545.61 873.229 2602.32 955.793C2655.98 1033.94 2699.21 1118.75 2704.6 1209.79C2707.4 1256.66 2700.73 1303.48 2692.89 1349.82C2684.41 1399.97 2675.74 1449.95 2671.08 1500.42C2662.65 1592.27 2663.09 1684.41 2666.72 1776.43C2667.16 1777.13 2667.5 1777.82 2667.84 1778.52C2678.19 1797.15 2688.28 1815.89 2697.94 1834.76C2724.99 1887.32 2749.06 1940.9 2766.85 1996.45C2814.88 2062.19 2856.83 2130.71 2885.85 2203.74C2887.51 2208 2889.18 2212.25 2890.75 2216.59C2892.32 2218.39 2893.89 2220.2 2895.45 2222C2937.9 2271.04 2977.99 2321.55 3017.1 2372.47C3012.79 2348.4 3009.21 2324.21 3006.42 2299.94C3005.63 2293.3 3004.95 2286.67 3004.31 2280C3004.26 2279.39 3004.21 2278.77 3004.11 2278.2C3003.08 2267.35 3002.3 2256.55 3001.61 2245.74C2957.65 2118.23 2888.3 1997.6 2842.08 1870.58C2797.63 1748.56 2777.83 1620.52 2782.78 1493.01C2787.63 1367.3 2816.01 1242.49 2867.03 1124.15C2892.86 1064.35 2924.52 1006.31 2961.86 950.881C2999.36 895.252 3041.75 841.997 3076.7 785.14C3116.79 719.81 3142.37 652.269 3139.34 578.261C3137.96 543.549 3134.83 505.399 3157.37 474.453C3174.43 451.12 3202.66 433.519 3235.79 435.074C3238.19 435.197 3240.59 435.402 3243.04 435.729C3246.43 436.179 3248.78 438.963 3249.07 441.665C3272.6 708.225 3499.03 925.174 3538.34 1189.03C3547.11 1247.86 3545.79 1308.07 3529.71 1365.95C3512.12 1429.36 3474.03 1487.03 3454.43 1549.82C3444.09 1582.94 3442.57 1615.65 3442.91 1649.66C3443.21 1680.44 3441.78 1710.86 3430.22 1740.33C3409.54 1793.22 3366.11 1836.69 3319.7 1875.53C3260.54 1925.02 3196.68 1969.68 3144.63 2024.78C3089.93 2082.66 3046.51 2147.5 3015.43 2216.43C3015.73 2225.52 3016.17 2234.56 3016.66 2243.57C3017.69 2260.72 3019.11 2277.87 3021.02 2294.94C3021.71 2301.49 3022.54 2308 3023.32 2314.55C3023.62 2316.35 3023.81 2318.15 3024.06 2319.91C3027.59 2346.44 3032.1 2372.88 3037.54 2399.2C3039.79 2410.33 3042.29 2421.43 3044.89 2432.52C3079.79 2580.86 3142.77 2725.07 3220.94 2860.6C3262.35 2932.44 3308.08 3002.65 3357.78 3070.84C3373.51 3092.41 3389.59 3113.86 3406.1 3135.02C3416.79 3148.86 3427.72 3162.57 3438.8 3176.16C3443.79 3182.39 3448.84 3188.57 3453.94 3194.71C3465.65 3208.91 3477.51 3222.99 3489.67 3236.99C3490.16 3237.56 3490.65 3238.14 3491.14 3238.71C3568.38 3328.19 3652.49 3413.5 3742.42 3494.01C3955.18 3684.48 4201.66 3848.75 4472.4 3978.26C4505.24 3993.98 4538.52 4009.17 4572.04 4023.9C4580.71 4027.71 4573.85 4039.09 4565.18 4035.28C4287.82 3913.5 4033.16 3756.56 3811.33 3571.79C3669.93 3454.02 3541.77 3325.04 3429.58 3187.05C3386.89 3174.81 3342.05 3168.47 3296.76 3167.24C3295.73 3167.94 3294.46 3168.43 3292.94 3168.63C3175.55 3184.15 3064.05 3228.15 2974.8 3293.77C2892.22 3354.47 2836.69 3431.88 2789.78 3513.95C2746.12 3590.29 2708.52 3669.74 2653.48 3741.09C2626.77 3775.76 2596.04 3808.3 2559.43 3836.1C2526.74 3860.86 2489.1 3880.02 2453.27 3901.26C2448.13 3904.33 2442.98 3907.49 2437.88 3910.68C2431.51 3914.69 2425.19 3918.82 2419.06 3923.12C2392.25 3941.83 2371.57 3963.93 2352.7 3988.29C2352.11 3988.94 2351.62 3989.6 2351.13 3990.25C2343.58 4000.08 2336.09 4009.94 2328.24 4019.52C2317.02 4025.78 2305.5 4031.56 2293.59 4036.67C2252.86 4054.23 2208.21 4064.59 2160.43 4064.06C2155.13 4063.98 2149.74 4063.81 2144.35 4063.48C2144.16 4063.48 2143.96 4063.48 2143.72 4063.44C2139.79 4063.2 2135.63 4061.11 2135.78 4057.39L2135.82 4057.59ZM2873.45 2825.07C2819.04 2815.25 2765.08 2819.06 2712.05 2832.65C2657.06 2846.73 2605.26 2868.14 2550.61 2883C2497.73 2897.36 2442.1 2905.59 2386.47 2905.47C2330.25 2905.35 2275.9 2894.83 2221.5 2883.86C2164.84 2872.39 2108.43 2862.69 2049.81 2864.98C1995.01 2867.2 1941.1 2877.76 1889.84 2893.8C1830.83 2912.22 1775.98 2937.89 1723.54 2966.87C1691.19 2984.72 1657.28 3003.46 1620.22 3013.12C1616.5 3015.66 1612.33 3017.83 1607.77 3019.59C1585.72 3028.27 1570.97 3042.64 1559.65 3060.77C1557.19 3064.7 1554.6 3068.92 1553.32 3073.26C1551.8 3078.37 1551.75 3077.19 1554.7 3079.81C1563.86 3087.71 1577.88 3093.85 1588.51 3100.35C1613.9 3115.91 1639.09 3131.71 1664.19 3147.59C1768.34 3213.62 1875.92 3307.07 2019.13 3283.33C2087.4 3271.99 2147.88 3240.31 2204.83 3208.38C2264.77 3174.77 2323.49 3140.39 2388.58 3113.78C2454.15 3086.93 2523.46 3066.38 2595.31 3054.92C2668.48 3043.25 2740.19 3043.95 2814.05 3048.82C2856.1 3051.6 2900.35 3054.59 2941.92 3046.49C2976.22 3039.77 3005.39 3024.26 3032.49 3005.96C3055.77 2990.28 3077.83 2972.85 3105.12 2962.16C3121.4 2955.78 3138.26 2952.83 3155.41 2952.42C3149.82 2950.37 3144.14 2948.41 3138.4 2946.57L3139.04 2945.38C3138.26 2945.13 3137.47 2944.81 3136.69 2944.31C3125.12 2937.11 3113.46 2929.91 3101.65 2922.66C3032.2 2880.46 2957.89 2840.34 2873.5 2825.12L2873.45 2825.07ZM2650.4 1747.66C2648.19 1678.85 2648.24 1609.96 2652.7 1541.23C2655.98 1491 2661.86 1440.98 2670.34 1391.25C2678.58 1342.94 2688.28 1294.64 2689.75 1245.77C2695.88 1049.41 2532.03 897.585 2420.63 737.411C2371.62 666.923 2334.08 592.096 2309.82 513.79C2303.1 502.533 2294.62 489.885 2280.16 490.744C2250.41 492.586 2230.22 521.158 2223.36 542.362C2206.89 593.12 2238.26 642.649 2251.59 691.197C2264.58 738.23 2265.46 787.432 2253.89 834.752C2241.44 885.837 2212.38 932.461 2195.23 982.4C2160.72 1082.77 2180.57 1187.52 2240.91 1278.02C2274.77 1328.82 2317.12 1375.32 2357.85 1422.27C2400.05 1470.78 2442.2 1519.33 2484.35 1567.79C2529.48 1619.74 2574.67 1671.72 2619.91 1723.67C2630.2 1735.46 2640.45 1747.29 2650.69 1759.12C2650.54 1755.31 2650.4 1751.5 2650.3 1747.66L2650.4 1747.66ZM2779.2 2039.11C2770.62 2026.54 2761.8 2014.09 2752.73 2001.69C2730.33 1971.03 2706.61 1941.07 2682.4 1911.6C2639.91 1859.9 2596.58 1808.48 2551.34 1758.42C2507.23 1709.63 2459.64 1662.35 2402.94 1623.42C2347.46 1585.35 2284.43 1558.99 2215.81 1541.88C2150.87 1525.71 2083.92 1516.46 2017.8 1504.47C1947.67 1491.66 1879.94 1473.56 1813.43 1451.09C1743.88 1427.64 1676 1400.91 1606.7 1377C1550.28 1357.56 1491.18 1339.87 1430.79 1327.84C1343.8 1310.52 1254.21 1305.04 1166.38 1323.46C1210.78 1460.01 1360.17 1544.26 1492.21 1620.72C1562.98 1661.74 1632.28 1703.57 1696.53 1751.67C1762.6 1801.12 1824.5 1854.29 1887.78 1906.23C2001.78 1999.89 2123.28 2091.05 2272.13 2144.06C2340.45 2168.37 2413.87 2183.77 2488.41 2184.79C2569.97 2185.93 2650.45 2169.89 2732.05 2171.89C2748.81 2172.3 2765.48 2173.7 2781.94 2175.99C2786.94 2176.64 2791.94 2177.46 2796.89 2178.32C2814.78 2181.47 2832.33 2185.73 2849.43 2190.93C2855.31 2192.73 2861.15 2194.65 2866.93 2196.7C2865.07 2192.28 2863.16 2187.82 2861.19 2183.4C2839.09 2133.42 2810.96 2085.52 2779.35 2039.15L2779.2 2039.11ZM3015.04 2183.52C3039.84 2134.56 3071.01 2088.06 3107.97 2044.67C3152.52 1992.4 3206.24 1948.03 3262.11 1904.31C3312.39 1864.93 3364.74 1824.08 3397.43 1772.63C3414.68 1745.45 3424.88 1716.22 3427.13 1685.52C3429.48 1652.94 3425.46 1620.19 3430.22 1587.73C3439.43 1524.77 3475.11 1467.71 3499.37 1408.4C3523 1350.52 3531.77 1289.98 3527.51 1228.94C3518.78 1103.85 3462.27 985.183 3401.99 871.879C3329.6 735.774 3249.37 598.359 3234.42 447.845C3198.15 446.126 3169.48 474.002 3159.97 501.346C3148.5 534.175 3155.7 569.255 3155.12 602.821C3154.09 662.707 3131.54 720.178 3100.66 773.719C3068.86 828.939 3028.81 880.475 2991.76 933.279C2954.07 987.025 2920.94 1042.86 2893.79 1100.9C2785.37 1332.51 2766.95 1593.75 2845.27 1833.86C2885.85 1958.22 2952.16 2075.5 2999.9 2197.81C3001.12 2200.96 3002.35 2204.11 3003.52 2207.22C3007.1 2199.24 3010.97 2191.34 3014.99 2183.48L3015.04 2183.52ZM2317.85 4010.19C2340.94 3981.99 2360.79 3951.74 2390.44 3927.71C2434.16 3892.34 2489.3 3869.21 2535.81 3836.75C2575.11 3809.33 2608.25 3775.92 2636.28 3740.23C2692.55 3668.76 2730.48 3588.78 2774.3 3511.82C2820.27 3431.02 2874.08 3353.82 2953.73 3292.7C3027.98 3235.68 3117.43 3193.89 3213.83 3170.6C3227.41 3167.28 3241.08 3164.37 3254.9 3161.84C3246.92 3159.91 3238.93 3158.07 3230.89 3156.19C3127.08 3131.79 3019.7 3110.63 2911.68 3119.72C2842.42 3125.57 2781.35 3147.67 2719.75 3173.5C2655.59 3200.4 2588.89 3220.82 2522.67 3243.7C2459.45 3265.56 2400 3292.87 2349.22 3331.51C2301.24 3367.98 2261.44 3411.78 2232.67 3460.37C2202.48 3511.21 2189.2 3565.69 2175.43 3620.83C2168.56 3648.33 2160.82 3675.6 2150.18 3702.33C2140.73 3726.19 2129.94 3749.69 2121.91 3773.92C2112.94 3800.98 2107.94 3828.65 2112.15 3856.65C2113.03 3862.62 2114.21 3868.52 2115.68 3874.41C2131.95 3894.14 2143.32 3916.41 2148.71 3940.23C2156.65 3975.68 2152.64 4013.18 2151.26 4049.2C2151.26 4049.85 2151.21 4050.55 2151.21 4051.2C2156.36 4051.41 2161.51 4051.45 2166.6 4051.37C2222.18 4050.63 2272.91 4034.79 2317.8 4010.07L2317.85 4010.19Z" fill="#CCB282" fill-opacity="0.35"/>
</svg>
