<svg width="4693" height="3652" viewBox="0 0 4693 3652" fill="none" xmlns="http://www.w3.org/2000/svg">
<path d="M2541.31 3159.93C2541.54 3159.38 2541.69 3158.91 2541.92 3158.36C2551.9 3132.45 2560 3105 2574.64 3080.62C2578.02 3074.98 2581.88 3069.65 2586.18 3064.56C2595.8 3053.19 2607.68 3043.3 2621.21 3035.08C2625.3 3029.21 2629.17 3023.26 2632.6 3017.2C2640.95 3002.47 2647.13 2986.95 2649.9 2969.65C2656.67 2927.48 2651.33 2884.6 2657.27 2842.26C2663.49 2797.46 2672.96 2753.13 2668.84 2707.83C2660.94 2621.62 2614.08 2541.49 2540.46 2481.22C2498.87 2447.2 2451.73 2418.22 2410.39 2384C2371.49 2351.78 2335.49 2317.53 2287.6 2294.3C2191.96 2247.98 2077.67 2241.96 1969.8 2237.02C1969.48 2237 1969.19 2237.01 1968.94 2237.01C1965.84 2236.08 1962.72 2235.2 1959.54 2234.35C1927.56 2225.65 1894.33 2220.25 1860.91 2218.85C1888.27 2201.59 1915.16 2183.84 1941.6 2165.63C1953.16 2160.65 1964.69 2155.84 1976.17 2151.15C2009.16 2137.71 2043.44 2124.72 2079.42 2118.02C2082.76 2117.38 2086.16 2116.82 2089.52 2116.32C2115.54 2118.73 2138.36 2126.76 2155.76 2143.54C2169.97 2157.24 2179.92 2173.57 2191.51 2188.83C2204.61 2206.08 2220.11 2222 2240.21 2233.87C2263.89 2247.91 2292.17 2256.02 2319.84 2262.65C2349.2 2269.66 2379.07 2275.04 2408.01 2283.14C2436.3 2291.04 2463.74 2301.06 2490.03 2312.88C2544.24 2337.22 2593.54 2369.3 2636.76 2405.82C2678 2440.6 2711.73 2480.09 2746.94 2518.98C2779.55 2554.96 2815.21 2591.37 2862.42 2614.58C2910.04 2637.97 2963.99 2642.83 3017.78 2634.47C3067.92 2626.67 3115.96 2609.45 3164.33 2596.16C3191.72 2588.64 3219.15 2581.28 3246.69 2574.11C3259.25 2570.87 3272.3 2568.14 3284.67 2564.46C3290.9 2562.6 3293.77 2559.56 3294.82 2554C3297.83 2538.48 3290.36 2518.96 3281.54 2505.53C3281.42 2505.32 3281.3 2505.12 3281.18 2504.91C3275.64 2496.92 3266.08 2491.99 3260.78 2484C3254.68 2480.41 3248.93 2476.38 3243.5 2472.06C3226.29 2458.56 3211.7 2442.22 3197.45 2426.66C3171.01 2397.75 3142.27 2370.45 3109.75 2346.19C3078.07 2322.56 3042.9 2301.92 3004.62 2286.45C2964.37 2270.21 2921.79 2261.41 2877.56 2257C2830.45 2252.28 2782.53 2250.89 2736.63 2240.13C2692.55 2229.8 2651.17 2212.23 2614.08 2189.98C2576.07 2167.18 2543.14 2139.07 2505.9 2115.4C2472.43 2094.12 2435.61 2078.01 2394.08 2071.14C2307.06 2056.74 2217.65 2079.55 2135.27 2101.24C2134.58 2101.42 2134.04 2101.64 2133.59 2101.92C2121.29 2102.37 2109.01 2103.36 2096.89 2104.95C2094.06 2105.33 2091.26 2105.75 2088.46 2106.17C2088.24 2106.21 2087.94 2106.23 2087.74 2106.31C2054.59 2111.57 2023.2 2121.76 1992.55 2133.44C1988.55 2134.95 1984.62 2136.49 1980.65 2138.04C2004.22 2121.09 2027.41 2103.78 2050.15 2086.14C2183.4 1982.67 2304.3 1864.65 2392.84 1731.37C2437.94 1701.5 2483.42 1671.97 2530.15 1643.97C2539.78 1638.2 2549.44 1632.46 2559.25 1626.87C2562.93 1624.72 2566.65 1622.61 2570.31 1620.52C2590.06 1619.15 2609.97 1619.45 2629.72 1621.54C2633.68 1621.97 2637.6 1622.43 2641.52 1622.98C2652.61 1624.55 2663.59 1626.68 2674.44 1629.42C2735.75 1644.88 2790.5 1673.95 2850.95 1691.39C2904.58 1706.86 2961.49 1712.51 3018.11 1710.84C3142.58 1707.2 3260.81 1669.54 3372.5 1626.28C3435.51 1601.88 3497.53 1575.64 3561.14 1552.17C3624.71 1528.72 3689.75 1510.02 3756.58 1494.3C3889.64 1463.01 4043.7 1434.17 4126.66 1333.02C4127.91 1331.5 4129.19 1329.91 4130.41 1328.35C4132.14 1326.17 4132.02 1322.92 4129.2 1321.31C3932.25 1209.33 3683.85 1286.12 3465.45 1270.69C3355.51 1262.91 3245.37 1238.48 3135.82 1262.51C3026.14 1286.53 2932.43 1345.78 2841.64 1400.28C2838.87 1401.91 2836.12 1403.58 2833.37 1405.25C2803.99 1422.82 2774.69 1440.72 2746.01 1459.39C2776.03 1425.99 2809.1 1394.51 2843.43 1364.14C2849.1 1359.1 2854.87 1354.12 2860.59 1349.17C2861.86 1348.4 2863.14 1347.68 2864.41 1346.91C2925.46 1311.45 2986.54 1275.92 3047.57 1240.42C3097.49 1211.39 3147.42 1182.41 3197.34 1153.38C3244.43 1126 3292.68 1099.47 3335.6 1067.52C3410.64 1011.6 3460.08 936.003 3466.21 851.397C3469.42 807.611 3461.16 763.681 3469.59 720.074C3478.03 676.466 3500.27 637.453 3531.35 601.995C3560.65 568.527 3594.6 529.618 3578.8 485.73C3573.37 470.676 3558.41 451.484 3537.29 451.114C3535.2 451.092 3533.24 451.276 3531.29 451.706C3521.52 453.773 3513.95 461.005 3506.53 466.498C3506.01 466.861 3505.56 467.246 3505.04 467.609C3495.41 479.695 3485.33 491.552 3474.8 503.034C3443.25 537.564 3407.69 569.491 3368.7 598.43C3301.23 648.494 3226.5 691.064 3158.41 740.465C3093.96 787.221 3035.24 841.23 3002.87 908.1C2986.18 942.523 2976.59 978.968 2968.02 1015.3C2958.75 1054.62 2949.67 1093.86 2937.43 1132.59C2915.13 1203.07 2886.11 1271.84 2854.75 1339.82C2854.21 1340.25 2853.73 1340.69 2853.26 1341.14C2839.73 1352.82 2826.35 1364.64 2813.25 1376.64C2776.67 1410.06 2742 1444.88 2711.4 1482.53C2655.03 1521.24 2602.34 1563.35 2557.91 1611.64C2555.34 1614.46 2552.77 1617.28 2550.25 1620.18C2548.52 1621.18 2546.78 1622.19 2545.05 1623.2C2498.05 1650.64 2452.36 1679.69 2407.27 1709.26C2417.99 1692.21 2428.2 1674.9 2437.84 1657.37C2440.49 1652.58 2443.07 1647.77 2445.62 1642.92C2445.85 1642.48 2446.08 1642.03 2446.33 1641.62C2450.48 1633.74 2454.43 1625.83 2458.31 1617.9C2530.87 1532.15 2620.27 1457.04 2694.36 1372.13C2765.58 1290.58 2820.25 1199.18 2856.25 1102.81C2891.76 1007.81 2909.41 908.369 2908.12 808.852C2907.44 758.551 2901.84 708.299 2891.19 658.771C2880.48 609.059 2865.37 560.057 2856.96 509.98C2847.33 452.453 2849.24 396.422 2874.55 341.769C2886.39 316.124 2900.61 288.291 2893.39 260.27C2887.91 239.131 2872.29 219.85 2847.04 213.823C2845.21 213.393 2843.35 213.025 2841.41 212.738C2838.75 212.341 2836.12 213.911 2835.06 215.866C2734.48 409.984 2497.68 522.993 2386.14 711.667C2361.27 753.726 2343.51 799.016 2337.51 845.763C2330.91 896.97 2341.42 948.34 2336.52 999.525C2333.94 1026.52 2324.9 1051.29 2314.05 1076.64C2304.24 1099.58 2295.84 1122.62 2295.31 1147.16C2294.3 1191.17 2313.22 1233.09 2335.82 1272.19C2364.63 1322.02 2398.46 1369.25 2420.21 1421.73C2443.07 1476.85 2455.34 1534.74 2457.1 1593C2454.05 1599.73 2450.91 1606.39 2447.74 1613.02C2441.63 1625.61 2435.22 1638.12 2428.48 1650.46C2425.93 1655.21 2423.28 1659.89 2420.65 1664.62C2419.87 1665.9 2419.17 1667.2 2418.43 1668.47C2407.54 1687.53 2395.93 1706.31 2383.67 1724.8C2378.52 1732.63 2373.2 1740.38 2367.8 1748.11C2295.53 1851.41 2203.55 1945.52 2102.92 2029.85C2049.6 2074.56 1993.56 2117.1 1935.18 2157.28C1916.7 2169.99 1898.01 2182.53 1879.08 2194.77C1866.78 2202.79 1854.34 2210.67 1841.83 2218.42C1836.16 2221.98 1830.46 2225.51 1824.74 2228.99C1811.56 2237.07 1798.31 2245.02 1784.87 2252.84C1784.32 2253.16 1783.78 2253.49 1783.23 2253.81C1697.63 2303.92 1608.21 2349.43 1515.92 2390.09C1297.58 2486.27 1062.2 2555.55 819.51 2593.6C790.07 2598.22 760.467 2602.35 730.821 2606.09C723.152 2607.05 724.737 2617.05 732.407 2616.08C977.637 2585.26 1216.85 2523.22 1440.19 2433.26C1582.55 2375.93 1718.51 2307.34 1845.33 2228.56C1881.05 2228.67 1916.54 2233.66 1950.78 2242.57C1951.33 2243.32 1952.13 2243.96 1953.2 2244.44C2036.11 2281.51 2105.75 2338.59 2152.03 2407C2194.86 2470.29 2212.26 2540.19 2221.77 2611.71C2230.64 2678.24 2234 2745.78 2252.93 2811.05C2262.1 2842.76 2274.93 2873.75 2293.64 2902.47C2310.37 2928.07 2332.54 2950.56 2352.7 2974.21C2355.59 2977.62 2358.46 2981.09 2361.28 2984.59C2364.79 2988.97 2368.23 2993.43 2371.47 2997.97C2385.68 3017.77 2394.26 3038.78 2400.78 3061.07C2401.02 3061.69 2401.18 3062.29 2401.34 3062.88C2403.92 3071.86 2406.46 3080.86 2409.34 3089.72C2415.78 3096.84 2422.59 3103.65 2429.9 3110.06C2454.87 3132.03 2485.02 3149.45 2520.91 3159.43C2524.89 3160.51 2528.97 3161.56 2533.1 3162.49C2533.25 3162.53 2533.39 3162.57 2533.59 3162.59C2536.6 3163.26 2540.36 3162.61 2541.41 3159.79L2541.31 3159.93ZM2373.72 2078.7C2417.45 2083.17 2456.59 2097.72 2492 2119.38C2528.72 2141.84 2560.78 2169.08 2597 2192.05C2632.05 2214.26 2671.07 2232.48 2712.69 2244.46C2754.75 2256.57 2798.65 2260.5 2842.73 2264.11C2888.65 2267.84 2933.83 2272.83 2976.93 2287.26C3017.2 2300.8 3054.21 2320.4 3087.54 2343.51C3125.91 2370.09 3158.91 2401.17 3189.09 2434.21C3207.71 2454.57 3227.22 2475.94 3251.91 2491.2C3253.9 2493.9 3256.34 2496.43 3259.2 2498.73C3272.98 2510.01 3279.54 2523.95 3282.35 2539.96C3282.96 2543.42 3283.59 2547.14 3283.19 2550.66C3282.73 2554.81 3283.14 2553.94 3280.13 2555.26C3270.82 2559.17 3258.43 2560.72 3248.45 2563.28C3224.63 2569.39 3200.88 2575.73 3177.18 2582.16C3078.77 2608.9 2969.26 2655.4 2869.61 2606.58C2822.11 2583.29 2786.77 2546.49 2754.14 2510.27C2719.8 2472.14 2686.62 2433.7 2646.25 2399.69C2605.6 2365.39 2560.19 2335 2510.06 2310.84C2459 2286.24 2405.18 2271.2 2348.46 2258.82C2316.16 2251.77 2282.15 2244.4 2253.61 2229.32C2230.05 2216.86 2213.09 2198.94 2198.52 2179.38C2186 2162.61 2174.95 2144.79 2157.87 2130.88C2147.69 2122.58 2136.01 2116.72 2123.32 2112.69C2128.13 2112.37 2132.99 2112.14 2137.85 2112.01L2137.74 2110.98C2138.41 2110.97 2139.09 2110.89 2139.83 2110.7C2150.72 2107.82 2161.68 2104.97 2172.77 2102.12C2237.82 2085.65 2305.85 2071.79 2373.67 2078.72L2373.72 2078.7ZM2875.91 1321.86C2898.98 1270.91 2920.4 1219.41 2938.46 1167.08C2951.65 1128.83 2962.83 1090.16 2971.97 1051.15C2980.86 1013.27 2988.64 975.061 3002.76 938.214C3059.32 790.128 3229.06 712.213 3362.2 616.676C3420.79 574.63 3472.15 526.852 3514.66 473.592C3523.19 466.636 3533.46 459.022 3544 462.802C3565.66 470.635 3571.86 496.371 3570.39 513.707C3566.89 555.216 3528.03 585.427 3502.95 618.818C3478.59 651.151 3462.61 687.733 3456.53 725.609C3449.93 766.491 3457.13 807.643 3454.41 848.69C3448.94 931.192 3401.49 1005.17 3328.22 1059.72C3287.09 1090.34 3240.95 1115.9 3195.89 1142.16C3149.25 1169.25 3102.63 1196.39 3056.03 1223.47C3006.12 1252.49 2956.15 1281.54 2906.17 1310.55C2894.8 1317.12 2883.46 1323.74 2872.12 1330.36C2873.42 1327.55 2874.71 1324.73 2875.98 1321.88L2875.91 1321.86ZM2688.89 1511.73C2699.21 1504.2 2709.68 1496.82 2720.32 1489.51C2746.61 1471.46 2773.67 1454.21 2800.94 1437.44C2848.8 1408.02 2897.2 1379 2946.6 1351.4C2994.76 1324.5 3045.05 1299.5 3099.56 1282.71C3152.88 1266.29 3208.2 1260.27 3264.82 1262.37C3318.39 1264.38 3371.32 1271.99 3424.47 1277.38C3480.88 1283.02 3537.14 1284.2 3593.85 1281.83C3653.14 1279.4 3712.2 1274.15 3771.45 1271.32C3819.67 1269.03 3869.35 1268.64 3918.23 1272.75C3988.65 1278.69 4057.32 1294.03 4117.24 1326.86C4041.53 1419.28 3903.64 1449.82 3781.14 1478.32C3715.47 1493.61 3650.64 1509.84 3587.64 1531.85C3522.86 1554.47 3460.03 1580.77 3396.57 1605.87C3282.19 1651.13 3162.99 1692.89 3035.23 1700.21C2976.59 1703.56 2916.92 1699.13 2860.88 1683.72C2799.57 1666.87 2744.41 1637.42 2682.79 1621.21C2670.13 1617.88 2657.24 1615.3 2644.22 1613.44C2640.28 1612.85 2636.29 1612.37 2632.32 1611.94C2617.97 1610.41 2603.53 1609.79 2589.12 1609.96C2584.17 1610.03 2579.21 1610.2 2574.25 1610.48C2577.02 1607.58 2579.83 1604.66 2582.68 1601.78C2614.76 1569.22 2650.7 1539.53 2688.77 1511.73L2688.89 1511.73ZM2467.64 1568.49C2464.35 1526.52 2455.53 1485 2441.42 1444.55C2424.39 1395.81 2398.05 1350.99 2369.9 1306.2C2344.58 1265.85 2318.17 1223.96 2309.76 1178.41C2305.33 1154.36 2306.81 1130.3 2314.68 1106.87C2323.07 1082 2336.27 1058.4 2342.82 1033.11C2355.53 984.056 2346.63 933.666 2346.97 884.072C2347.33 835.687 2359.62 788.535 2381.81 743.846C2427.28 652.246 2506.47 575.819 2586.81 504.218C2683.3 418.205 2786.05 332.913 2844.09 223.665C2871.73 230.251 2884.49 257.307 2883.08 279.806C2881.43 306.831 2865.12 331.486 2855.11 356.7C2837.23 401.682 2836.19 449.527 2842.6 496.243C2849.18 544.416 2863.07 591.622 2874.32 639.128C2885.76 687.476 2893.14 736.395 2895.36 785.668C2904.28 982.291 2836.72 1181.54 2703.41 1344C2634.36 1428.14 2548.28 1501.4 2474.51 1582.45C2472.62 1584.54 2470.72 1586.63 2468.87 1588.7C2468.68 1581.96 2468.25 1575.21 2467.69 1568.47L2467.64 1568.49ZM2420.01 3085C2411.54 3058.92 2406.12 3032 2391.44 3007.61C2369.77 2971.69 2335.76 2942.44 2311.1 2908.08C2290.26 2879.06 2275.89 2846.9 2266.05 2814.14C2246.25 2748.52 2242.8 2680.51 2234.01 2613.48C2224.8 2543.11 2208.62 2473.74 2168.11 2410.78C2130.37 2352.05 2076.52 2301.4 2011.72 2263.08C2002.6 2257.65 1993.28 2252.51 1983.74 2247.62C1990.31 2247.91 1996.86 2248.27 2003.45 2248.61C2088.64 2252.9 2175.5 2260.38 2253.41 2290.62C2303.35 2310.02 2342.11 2339.79 2380.12 2372.47C2419.7 2406.49 2463.2 2436.23 2505.57 2467.7C2546.02 2497.76 2581.96 2531.06 2607.88 2570.96C2632.39 2608.63 2648.5 2650 2654.87 2692.56C2661.61 2737.11 2654.57 2780.71 2647.7 2824.91C2644.26 2846.96 2641.56 2869.01 2641.19 2891.3C2640.83 2911.18 2641.58 2931.09 2640.04 2950.94C2638.32 2973.11 2633.44 2994.88 2621.57 3014.89C2619.05 3019.16 2616.34 3023.31 2613.4 3027.4C2595.1 3038.61 2579.66 3052.79 2568.22 3069.42C2551.24 3094.19 2542.57 3123.09 2532.38 3150.31C2532.18 3150.8 2532 3151.33 2531.8 3151.82C2527.88 3150.86 2524.03 3149.77 2520.24 3148.6C2478.93 3135.99 2445.94 3113.14 2420.08 3084.92L2420.01 3085Z" fill="#CCB282" fill-opacity="0.35"/>
</svg>
